<svg width="849" height="206" viewBox="0 0 849 206" fill="none" xmlns="http://www.w3.org/2000/svg">
<path d="M661.576 111.34L663.576 111.311L663.55 109.351L661.59 109.34L661.576 111.34ZM106.28 108.018L126.202 119.684L126.358 96.5904L106.28 108.018ZM661.576 111.34L661.59 109.34L124.293 106.125L124.28 108.125L124.266 110.125L661.563 113.34L661.576 111.34ZM662.035 145.226L664.035 145.197L663.576 111.311L661.576 111.34L659.576 111.368L660.035 145.254L662.035 145.226Z" fill="#2F279E"/>
<path d="M3.51562 36V12.6719H8.125V31.9375H17.9844V36H3.51562ZM26.4219 16.5469V23.3906H28.3125C29.8229 23.3906 30.8802 23.1354 31.4844 22.625C32.099 22.1146 32.4062 21.2292 32.4062 19.9688C32.4062 18.7083 32.099 17.8229 31.4844 17.3125C30.8802 16.8021 29.8229 16.5469 28.3125 16.5469H26.4219ZM21.8125 12.6719H28.1406C31.3594 12.6719 33.6719 13.2448 35.0781 14.3906C36.4948 15.5365 37.2031 17.3958 37.2031 19.9688C37.2031 22.5417 36.4948 24.401 35.0781 25.5469C33.6719 26.6927 31.3594 27.2656 28.1406 27.2656H26.4219V36H21.8125V12.6719ZM46.5312 25.7656C44.2083 24.8802 42.6354 23.9531 41.8125 22.9844C40.9896 22.0052 40.5781 20.6927 40.5781 19.0469C40.5781 16.9323 41.2552 15.2708 42.6094 14.0625C43.9635 12.8542 45.8229 12.25 48.1875 12.25C49.2604 12.25 50.3333 12.375 51.4062 12.625C52.4792 12.8646 53.5417 13.224 54.5938 13.7031V18.2031C53.6042 17.5052 52.599 16.974 51.5781 16.6094C50.5573 16.2448 49.5469 16.0625 48.5469 16.0625C47.4323 16.0625 46.5781 16.2865 45.9844 16.7344C45.3906 17.1823 45.0938 17.8229 45.0938 18.6562C45.0938 19.3021 45.3073 19.8385 45.7344 20.2656C46.1719 20.6823 47.0781 21.1458 48.4531 21.6562L50.4375 22.4062C52.3125 23.0938 53.6927 24.0052 54.5781 25.1406C55.4635 26.276 55.9062 27.7083 55.9062 29.4375C55.9062 31.7917 55.2083 33.5521 53.8125 34.7188C52.4271 35.875 50.3281 36.4531 47.5156 36.4531C46.3594 36.4531 45.1979 36.3125 44.0312 36.0312C42.875 35.7604 41.7552 35.3542 40.6719 34.8125V30.0469C41.901 30.9219 43.0885 31.5729 44.2344 32C45.3906 32.4271 46.5312 32.6406 47.6562 32.6406C48.7917 32.6406 49.6719 32.3854 50.2969 31.875C50.9219 31.3542 51.2344 30.6302 51.2344 29.7031C51.2344 29.0052 51.026 28.3958 50.6094 27.875C50.1927 27.3438 49.5885 26.9271 48.7969 26.625L46.5312 25.7656ZM119.203 36V12.6719H123.812V31.9375H133.672V36H119.203ZM257.797 16.5469V23.3906H259.688C261.198 23.3906 262.255 23.1354 262.859 22.625C263.474 22.1146 263.781 21.2292 263.781 19.9688C263.781 18.7083 263.474 17.8229 262.859 17.3125C262.255 16.8021 261.198 16.5469 259.688 16.5469H257.797ZM253.188 12.6719H259.516C262.734 12.6719 265.047 13.2448 266.453 14.3906C267.87 15.5365 268.578 17.3958 268.578 19.9688C268.578 22.5417 267.87 24.401 266.453 25.5469C265.047 26.6927 262.734 27.2656 259.516 27.2656H257.797V36H253.188V12.6719ZM393.594 25.7656C391.271 24.8802 389.698 23.9531 388.875 22.9844C388.052 22.0052 387.641 20.6927 387.641 19.0469C387.641 16.9323 388.318 15.2708 389.672 14.0625C391.026 12.8542 392.885 12.25 395.25 12.25C396.323 12.25 397.396 12.375 398.469 12.625C399.542 12.8646 400.604 13.224 401.656 13.7031V18.2031C400.667 17.5052 399.661 16.974 398.641 16.6094C397.62 16.2448 396.609 16.0625 395.609 16.0625C394.495 16.0625 393.641 16.2865 393.047 16.7344C392.453 17.1823 392.156 17.8229 392.156 18.6562C392.156 19.3021 392.37 19.8385 392.797 20.2656C393.234 20.6823 394.141 21.1458 395.516 21.6562L397.5 22.4062C399.375 23.0938 400.755 24.0052 401.641 25.1406C402.526 26.276 402.969 27.7083 402.969 29.4375C402.969 31.7917 402.271 33.5521 400.875 34.7188C399.49 35.875 397.391 36.4531 394.578 36.4531C393.422 36.4531 392.26 36.3125 391.094 36.0312C389.938 35.7604 388.818 35.3542 387.734 34.8125V30.0469C388.964 30.9219 390.151 31.5729 391.297 32C392.453 32.4271 393.594 32.6406 394.719 32.6406C395.854 32.6406 396.734 32.3854 397.359 31.875C397.984 31.3542 398.297 30.6302 398.297 29.7031C398.297 29.0052 398.089 28.3958 397.672 27.875C397.255 27.3438 396.651 26.9271 395.859 26.625L393.594 25.7656Z" fill="#F77189"/>
<path d="M84.1406 19.3906H89.3438V25.0938H84.1406V19.3906ZM84.1406 30.2656H89.3438V36H84.1406V30.2656ZM145.938 27.2031H144.984C143.307 27.2031 142.042 27.5 141.188 28.0938C140.344 28.6771 139.922 29.5521 139.922 30.7188C139.922 31.7708 140.24 32.5885 140.875 33.1719C141.51 33.7552 142.391 34.0469 143.516 34.0469C145.099 34.0469 146.344 33.5 147.25 32.4062C148.156 31.3021 148.615 29.7812 148.625 27.8438V27.2031H145.938ZM151.516 26.0156V36H148.625V33.4062C148.01 34.4479 147.234 35.2188 146.297 35.7188C145.37 36.2083 144.24 36.4531 142.906 36.4531C141.125 36.4531 139.703 35.9531 138.641 34.9531C137.578 33.9427 137.047 32.5938 137.047 30.9062C137.047 28.9583 137.698 27.4792 139 26.4688C140.312 25.4583 142.234 24.9531 144.766 24.9531H148.625V24.5C148.615 23.1042 148.26 22.0938 147.562 21.4688C146.865 20.8333 145.75 20.5156 144.219 20.5156C143.24 20.5156 142.25 20.6562 141.25 20.9375C140.25 21.2188 139.276 21.6302 138.328 22.1719V19.2969C139.391 18.8906 140.406 18.5885 141.375 18.3906C142.354 18.1823 143.302 18.0781 144.219 18.0781C145.667 18.0781 146.901 18.2917 147.922 18.7188C148.953 19.1458 149.786 19.7865 150.422 20.6406C150.818 21.1615 151.099 21.8073 151.266 22.5781C151.432 23.3385 151.516 24.4844 151.516 26.0156ZM163.844 13.5312V18.5H170.375V20.7344H163.844V30.2344C163.844 31.526 164.089 32.4271 164.578 32.9375C165.068 33.4479 165.922 33.7031 167.141 33.7031H170.375V36H166.859C164.703 36 163.182 35.5677 162.297 34.7031C161.411 33.8385 160.969 32.349 160.969 30.2344V20.7344H156.297V18.5H160.969V13.5312H163.844ZM190.906 26.5312V27.9375H178.453V28.0312C178.453 29.9375 178.948 31.4115 179.938 32.4531C180.938 33.4948 182.344 34.0156 184.156 34.0156C185.073 34.0156 186.031 33.8698 187.031 33.5781C188.031 33.2865 189.099 32.8438 190.234 32.25V35.1094C189.141 35.5573 188.083 35.8906 187.062 36.1094C186.052 36.3385 185.073 36.4531 184.125 36.4531C181.406 36.4531 179.281 35.6406 177.75 34.0156C176.219 32.3802 175.453 30.1302 175.453 27.2656C175.453 24.474 176.203 22.2448 177.703 20.5781C179.203 18.9115 181.203 18.0781 183.703 18.0781C185.932 18.0781 187.688 18.8333 188.969 20.3438C190.26 21.8542 190.906 23.9167 190.906 26.5312ZM188.031 25.6875C187.99 24 187.589 22.7188 186.828 21.8438C186.078 20.9583 184.995 20.5156 183.578 20.5156C182.193 20.5156 181.052 20.974 180.156 21.8906C179.26 22.8073 178.729 24.0781 178.562 25.7031L188.031 25.6875ZM209.234 25.1562V36H206.344V25.1562C206.344 23.5833 206.068 22.4271 205.516 21.6875C204.964 20.9479 204.099 20.5781 202.922 20.5781C201.578 20.5781 200.542 21.0573 199.812 22.0156C199.094 22.9635 198.734 24.3281 198.734 26.1094V36H195.859V18.5H198.734V21.125C199.245 20.125 199.938 19.3698 200.812 18.8594C201.688 18.3385 202.724 18.0781 203.922 18.0781C205.703 18.0781 207.031 18.6667 207.906 19.8438C208.792 21.0104 209.234 22.7812 209.234 25.1562ZM221.688 13.5312V18.5H228.219V20.7344H221.688V30.2344C221.688 31.526 221.932 32.4271 222.422 32.9375C222.911 33.4479 223.766 33.7031 224.984 33.7031H228.219V36H224.703C222.547 36 221.026 35.5677 220.141 34.7031C219.255 33.8385 218.812 32.349 218.812 30.2344V20.7344H214.141V18.5H218.812V13.5312H221.688ZM279.562 20.5156C278.104 20.5156 277 21.0833 276.25 22.2188C275.5 23.3542 275.125 25.0365 275.125 27.2656C275.125 29.4844 275.5 31.1667 276.25 32.3125C277 33.4479 278.104 34.0156 279.562 34.0156C281.031 34.0156 282.141 33.4479 282.891 32.3125C283.641 31.1667 284.016 29.4844 284.016 27.2656C284.016 25.0365 283.641 23.3542 282.891 22.2188C282.141 21.0833 281.031 20.5156 279.562 20.5156ZM279.562 18.0781C281.99 18.0781 283.844 18.8646 285.125 20.4375C286.417 22.0104 287.062 24.2865 287.062 27.2656C287.062 30.2552 286.422 32.5365 285.141 34.1094C283.859 35.6719 282 36.4531 279.562 36.4531C277.135 36.4531 275.281 35.6719 274 34.1094C272.719 32.5365 272.078 30.2552 272.078 27.2656C272.078 24.2865 272.719 22.0104 274 20.4375C275.281 18.8646 277.135 18.0781 279.562 18.0781ZM299.203 29.6562C299.203 30.9479 299.438 31.9219 299.906 32.5781C300.385 33.2344 301.089 33.5625 302.016 33.5625H305.375V36H301.734C300.016 36 298.682 35.4479 297.734 34.3438C296.797 33.2396 296.328 31.6771 296.328 29.6562V13.7656H291.719V11.5156H299.203V29.6562ZM312.5 18.5H319.859V33.7656H325.562V36H311.281V33.7656H316.984V20.7344H312.5V18.5ZM316.984 11.6875H319.859V15.3281H316.984V11.6875ZM344.359 35.1094C343.589 35.5573 342.792 35.8906 341.969 36.1094C341.156 36.3385 340.323 36.4531 339.469 36.4531C336.76 36.4531 334.641 35.6406 333.109 34.0156C331.589 32.3906 330.828 30.1406 330.828 27.2656C330.828 24.3906 331.589 22.1406 333.109 20.5156C334.641 18.8906 336.76 18.0781 339.469 18.0781C340.312 18.0781 341.135 18.1875 341.938 18.4062C342.74 18.625 343.547 18.9635 344.359 19.4219V22.4375C343.599 21.7604 342.833 21.2708 342.062 20.9688C341.302 20.6667 340.438 20.5156 339.469 20.5156C337.667 20.5156 336.281 21.099 335.312 22.2656C334.344 23.4323 333.859 25.099 333.859 27.2656C333.859 29.4219 334.344 31.0885 335.312 32.2656C336.292 33.4323 337.677 34.0156 339.469 34.0156C340.469 34.0156 341.365 33.8646 342.156 33.5625C342.948 33.25 343.682 32.7708 344.359 32.125V35.1094ZM360.469 30.375C359.99 31.5938 359.38 33.1979 358.641 35.1875C357.609 37.9375 356.917 39.6146 356.562 40.2188C356.083 41.0312 355.484 41.6406 354.766 42.0469C354.047 42.4531 353.208 42.6562 352.25 42.6562H349.938V40.25H351.641C352.484 40.25 353.146 40.0052 353.625 39.5156C354.104 39.026 354.714 37.7604 355.453 35.7188L348.688 18.5H351.734L356.922 32.1875L362.031 18.5H365.078L360.469 30.375ZM414.5 13.5312V18.5H421.031V20.7344H414.5V30.2344C414.5 31.526 414.745 32.4271 415.234 32.9375C415.724 33.4479 416.578 33.7031 417.797 33.7031H421.031V36H417.516C415.359 36 413.839 35.5677 412.953 34.7031C412.068 33.8385 411.625 32.349 411.625 30.2344V20.7344H406.953V18.5H411.625V13.5312H414.5ZM441.562 26.5312V27.9375H429.109V28.0312C429.109 29.9375 429.604 31.4115 430.594 32.4531C431.594 33.4948 433 34.0156 434.812 34.0156C435.729 34.0156 436.688 33.8698 437.688 33.5781C438.688 33.2865 439.755 32.8438 440.891 32.25V35.1094C439.797 35.5573 438.74 35.8906 437.719 36.1094C436.708 36.3385 435.729 36.4531 434.781 36.4531C432.062 36.4531 429.938 35.6406 428.406 34.0156C426.875 32.3802 426.109 30.1302 426.109 27.2656C426.109 24.474 426.859 22.2448 428.359 20.5781C429.859 18.9115 431.859 18.0781 434.359 18.0781C436.589 18.0781 438.344 18.8333 439.625 20.3438C440.917 21.8542 441.562 23.9167 441.562 26.5312ZM438.688 25.6875C438.646 24 438.245 22.7188 437.484 21.8438C436.734 20.9583 435.651 20.5156 434.234 20.5156C432.849 20.5156 431.708 20.974 430.812 21.8906C429.917 22.8073 429.385 24.0781 429.219 25.7031L438.688 25.6875ZM460.844 26.5312V27.9375H448.391V28.0312C448.391 29.9375 448.885 31.4115 449.875 32.4531C450.875 33.4948 452.281 34.0156 454.094 34.0156C455.01 34.0156 455.969 33.8698 456.969 33.5781C457.969 33.2865 459.036 32.8438 460.172 32.25V35.1094C459.078 35.5573 458.021 35.8906 457 36.1094C455.99 36.3385 455.01 36.4531 454.062 36.4531C451.344 36.4531 449.219 35.6406 447.688 34.0156C446.156 32.3802 445.391 30.1302 445.391 27.2656C445.391 24.474 446.141 22.2448 447.641 20.5781C449.141 18.9115 451.141 18.0781 453.641 18.0781C455.87 18.0781 457.625 18.8333 458.906 20.3438C460.198 21.8542 460.844 23.9167 460.844 26.5312ZM457.969 25.6875C457.927 24 457.526 22.7188 456.766 21.8438C456.016 20.9583 454.932 20.5156 453.516 20.5156C452.13 20.5156 450.99 20.974 450.094 21.8906C449.198 22.8073 448.667 24.0781 448.5 25.7031L457.969 25.6875ZM480.797 22.1094C480.182 21.6302 479.557 21.2812 478.922 21.0625C478.286 20.8438 477.589 20.7344 476.828 20.7344C475.036 20.7344 473.667 21.2969 472.719 22.4219C471.771 23.5469 471.297 25.1719 471.297 27.2969V36H468.406V18.5H471.297V21.9219C471.776 20.6823 472.51 19.7344 473.5 19.0781C474.5 18.4115 475.682 18.0781 477.047 18.0781C477.755 18.0781 478.417 18.1667 479.031 18.3438C479.646 18.5208 480.234 18.7969 480.797 19.1719V22.1094ZM486.031 18.5H493.391V33.7656H499.094V36H484.812V33.7656H490.516V20.7344H486.031V18.5ZM490.516 11.6875H493.391V15.3281H490.516V11.6875ZM517.734 25.1562V36H514.844V25.1562C514.844 23.5833 514.568 22.4271 514.016 21.6875C513.464 20.9479 512.599 20.5781 511.422 20.5781C510.078 20.5781 509.042 21.0573 508.312 22.0156C507.594 22.9635 507.234 24.3281 507.234 26.1094V36H504.359V18.5H507.234V21.125C507.745 20.125 508.438 19.3698 509.312 18.8594C510.188 18.3385 511.224 18.0781 512.422 18.0781C514.203 18.0781 515.531 18.6667 516.406 19.8438C517.292 21.0104 517.734 22.7812 517.734 25.1562ZM534 27.1094C534 24.9531 533.646 23.3177 532.938 22.2031C532.24 21.0781 531.219 20.5156 529.875 20.5156C528.469 20.5156 527.396 21.0781 526.656 22.2031C525.917 23.3177 525.547 24.9531 525.547 27.1094C525.547 29.2656 525.917 30.9115 526.656 32.0469C527.406 33.1719 528.49 33.7344 529.906 33.7344C531.229 33.7344 532.24 33.1667 532.938 32.0312C533.646 30.8958 534 29.2552 534 27.1094ZM536.875 34.875C536.875 37.5 536.255 39.4896 535.016 40.8438C533.776 42.1979 531.953 42.875 529.547 42.875C528.755 42.875 527.927 42.8021 527.062 42.6562C526.198 42.5104 525.333 42.2969 524.469 42.0156V39.1719C525.49 39.651 526.417 40.0052 527.25 40.2344C528.083 40.4635 528.849 40.5781 529.547 40.5781C531.099 40.5781 532.229 40.1562 532.938 39.3125C533.646 38.4688 534 37.1302 534 35.2969V35.1719V33.2188C533.542 34.1979 532.917 34.9271 532.125 35.4062C531.333 35.8854 530.37 36.125 529.234 36.125C527.193 36.125 525.562 35.3073 524.344 33.6719C523.125 32.0365 522.516 29.849 522.516 27.1094C522.516 24.3594 523.125 22.1667 524.344 20.5312C525.562 18.8958 527.193 18.0781 529.234 18.0781C530.359 18.0781 531.312 18.3021 532.094 18.75C532.875 19.1979 533.51 19.8906 534 20.8281V18.5625H536.875V34.875Z" fill="white"/>
<path d="M299.052 140.794H301.458L302.675 145.271L303.885 140.794H306.305V151H304.569V142.824L303.489 147.288H301.882L300.788 142.824V151H299.052V140.794ZM314.433 150.624C313.968 150.815 313.494 150.959 313.011 151.055C312.528 151.15 312.018 151.198 311.48 151.198C310.199 151.198 309.219 150.856 308.54 150.173C307.866 149.485 307.529 148.496 307.529 147.206C307.529 145.957 307.855 144.971 308.506 144.246C309.158 143.521 310.047 143.159 311.172 143.159C312.307 143.159 313.187 143.496 313.811 144.171C314.44 144.841 314.754 145.786 314.754 147.008V147.821H309.566C309.57 148.423 309.748 148.872 310.099 149.168C310.45 149.464 310.974 149.612 311.671 149.612C312.132 149.612 312.585 149.546 313.032 149.414C313.478 149.282 313.945 149.072 314.433 148.785V150.624ZM312.738 146.317C312.729 145.789 312.592 145.39 312.328 145.121C312.068 144.848 311.683 144.711 311.172 144.711C310.712 144.711 310.345 144.852 310.072 145.135C309.798 145.413 309.636 145.809 309.586 146.324L312.738 146.317ZM320.12 147.404C319.373 147.404 318.851 147.5 318.555 147.691C318.259 147.883 318.111 148.211 318.111 148.676C318.111 149.022 318.213 149.298 318.418 149.503C318.623 149.708 318.901 149.811 319.252 149.811C319.781 149.811 320.191 149.612 320.483 149.216C320.774 148.815 320.92 148.257 320.92 147.541V147.404H320.12ZM322.91 146.632V151H320.92V150.146C320.679 150.483 320.369 150.743 319.991 150.925C319.612 151.107 319.195 151.198 318.74 151.198C317.869 151.198 317.19 150.968 316.703 150.508C316.219 150.048 315.978 149.405 315.978 148.58C315.978 147.687 316.267 147.028 316.846 146.604C317.425 146.176 318.32 145.962 319.533 145.962H320.92V145.627C320.92 145.303 320.802 145.06 320.565 144.896C320.332 144.727 319.988 144.643 319.533 144.643C319.054 144.643 318.589 144.704 318.138 144.827C317.691 144.946 317.224 145.137 316.737 145.401V143.692C317.179 143.51 317.628 143.376 318.083 143.289C318.539 143.202 319.022 143.159 319.533 143.159C320.777 143.159 321.649 143.412 322.151 143.918C322.657 144.424 322.91 145.328 322.91 146.632ZM331.092 146.03V151H329.103V146.338C329.103 145.782 329.023 145.385 328.864 145.148C328.709 144.907 328.453 144.786 328.098 144.786C327.738 144.786 327.453 144.948 327.244 145.271C327.038 145.595 326.936 146.044 326.936 146.618V151H324.947V143.344H326.936V144.492C327.077 144.068 327.319 143.74 327.661 143.508C328.002 143.275 328.415 143.159 328.898 143.159C329.622 143.159 330.169 143.401 330.538 143.884C330.908 144.362 331.092 145.078 331.092 146.03ZM339.808 142.571H335.467V144.772H339.418V146.55H335.467V151H333.451V140.794H339.808V142.571ZM343.287 147.808V141.901H341.257V140.363H345.29V147.808C345.29 148.409 345.384 148.835 345.571 149.086C345.758 149.337 346.074 149.462 346.521 149.462H348.12V151H345.96C345.008 151 344.324 150.754 343.91 150.262C343.495 149.77 343.287 148.951 343.287 147.808ZM353.288 144.786C352.81 144.786 352.434 144.998 352.161 145.422C351.887 145.841 351.75 146.427 351.75 147.179C351.75 147.931 351.887 148.519 352.161 148.942C352.434 149.362 352.81 149.571 353.288 149.571C353.772 149.571 354.15 149.362 354.423 148.942C354.697 148.519 354.833 147.931 354.833 147.179C354.833 146.427 354.697 145.841 354.423 145.422C354.15 144.998 353.772 144.786 353.288 144.786ZM349.747 147.179C349.747 145.944 350.066 144.966 350.704 144.246C351.347 143.521 352.208 143.159 353.288 143.159C354.373 143.159 355.234 143.521 355.872 144.246C356.515 144.966 356.836 145.944 356.836 147.179C356.836 148.414 356.515 149.394 355.872 150.118C355.234 150.838 354.373 151.198 353.288 151.198C352.208 151.198 351.347 150.838 350.704 150.118C350.066 149.394 349.747 148.414 349.747 147.179ZM357.513 143.344H359.181L360.09 149.209L360.917 145.347H362.537L363.351 149.209L364.274 143.344H365.942L364.554 151H362.654L361.724 147.021L360.801 151H358.901L357.513 143.344ZM377.187 146.365V149.387H378.527C379.169 149.387 379.618 149.277 379.873 149.059C380.133 148.84 380.263 148.459 380.263 147.917C380.263 147.366 380.129 146.969 379.86 146.728C379.591 146.486 379.147 146.365 378.527 146.365H377.187ZM377.187 142.387V144.759H378.527C379.037 144.759 379.399 144.668 379.614 144.485C379.832 144.303 379.942 144.002 379.942 143.583C379.942 143.164 379.83 142.861 379.607 142.674C379.388 142.482 379.028 142.387 378.527 142.387H377.187ZM375.239 140.78H378.527C379.662 140.78 380.514 140.997 381.083 141.43C381.658 141.858 381.945 142.501 381.945 143.357C381.945 144.014 381.776 144.526 381.439 144.896C381.102 145.265 380.607 145.479 379.955 145.538C380.735 145.616 381.32 145.878 381.712 146.324C382.109 146.771 382.307 147.395 382.307 148.197C382.307 149.182 382.011 149.895 381.418 150.337C380.826 150.779 379.862 151 378.527 151H375.239V140.78ZM387.605 147.404C386.857 147.404 386.336 147.5 386.039 147.691C385.743 147.883 385.595 148.211 385.595 148.676C385.595 149.022 385.698 149.298 385.903 149.503C386.108 149.708 386.386 149.811 386.737 149.811C387.265 149.811 387.676 149.612 387.967 149.216C388.259 148.815 388.405 148.257 388.405 147.541V147.404H387.605ZM390.394 146.632V151H388.405V150.146C388.163 150.483 387.853 150.743 387.475 150.925C387.097 151.107 386.68 151.198 386.224 151.198C385.354 151.198 384.675 150.968 384.187 150.508C383.704 150.048 383.462 149.405 383.462 148.58C383.462 147.687 383.752 147.028 384.33 146.604C384.909 146.176 385.805 145.962 387.017 145.962H388.405V145.627C388.405 145.303 388.286 145.06 388.049 144.896C387.817 144.727 387.473 144.643 387.017 144.643C386.538 144.643 386.074 144.704 385.622 144.827C385.176 144.946 384.709 145.137 384.221 145.401V143.692C384.663 143.51 385.112 143.376 385.568 143.289C386.023 143.202 386.507 143.159 387.017 143.159C388.261 143.159 389.134 143.412 389.635 143.918C390.141 144.424 390.394 145.328 390.394 146.632ZM398.03 143.583V145.333C397.661 145.096 397.275 144.918 396.874 144.8C396.478 144.677 396.079 144.615 395.678 144.615C395.231 144.615 394.894 144.681 394.666 144.813C394.439 144.941 394.325 145.132 394.325 145.388C394.325 145.752 394.812 146.049 395.787 146.276L395.863 146.297L396.437 146.434C397.166 146.607 397.699 146.887 398.036 147.274C398.378 147.657 398.549 148.177 398.549 148.833C398.549 149.621 398.289 150.214 397.77 150.61C397.255 151.002 396.478 151.198 395.439 151.198C394.979 151.198 394.507 151.157 394.024 151.075C393.541 150.998 393.051 150.879 392.554 150.72V148.97C392.996 149.22 393.445 149.412 393.901 149.544C394.361 149.676 394.805 149.742 395.234 149.742C395.703 149.742 396.059 149.674 396.3 149.537C396.542 149.4 396.662 149.202 396.662 148.942C396.662 148.687 396.576 148.491 396.403 148.354C396.234 148.218 395.828 148.072 395.186 147.917L394.632 147.794C393.867 147.621 393.308 147.35 392.957 146.98C392.606 146.611 392.431 146.117 392.431 145.497C392.431 144.759 392.698 144.185 393.231 143.774C393.764 143.364 394.514 143.159 395.48 143.159C395.913 143.159 396.343 143.196 396.772 143.269C397.205 143.337 397.624 143.442 398.03 143.583ZM407.224 150.624C406.759 150.815 406.285 150.959 405.802 151.055C405.319 151.15 404.809 151.198 404.271 151.198C402.99 151.198 402.01 150.856 401.331 150.173C400.657 149.485 400.32 148.496 400.32 147.206C400.32 145.957 400.646 144.971 401.297 144.246C401.949 143.521 402.838 143.159 403.963 143.159C405.098 143.159 405.978 143.496 406.602 144.171C407.231 144.841 407.545 145.786 407.545 147.008V147.821H402.357C402.361 148.423 402.539 148.872 402.89 149.168C403.241 149.464 403.765 149.612 404.462 149.612C404.923 149.612 405.376 149.546 405.823 149.414C406.269 149.282 406.736 149.072 407.224 148.785V150.624ZM405.529 146.317C405.52 145.789 405.383 145.39 405.119 145.121C404.859 144.848 404.474 144.711 403.963 144.711C403.503 144.711 403.136 144.852 402.863 145.135C402.589 145.413 402.427 145.809 402.377 146.324L405.529 146.317ZM419.686 142.489V145.483H420.513C421.174 145.483 421.636 145.372 421.901 145.148C422.17 144.925 422.304 144.538 422.304 143.986C422.304 143.435 422.17 143.048 421.901 142.824C421.636 142.601 421.174 142.489 420.513 142.489H419.686ZM417.669 140.794H420.438C421.846 140.794 422.858 141.045 423.473 141.546C424.093 142.047 424.403 142.861 424.403 143.986C424.403 145.112 424.093 145.925 423.473 146.427C422.858 146.928 421.846 147.179 420.438 147.179H419.686V151H417.669V140.794ZM429.208 144.786C428.73 144.786 428.354 144.998 428.08 145.422C427.807 145.841 427.67 146.427 427.67 147.179C427.67 147.931 427.807 148.519 428.08 148.942C428.354 149.362 428.73 149.571 429.208 149.571C429.691 149.571 430.07 149.362 430.343 148.942C430.617 148.519 430.753 147.931 430.753 147.179C430.753 146.427 430.617 145.841 430.343 145.422C430.07 144.998 429.691 144.786 429.208 144.786ZM425.667 147.179C425.667 145.944 425.986 144.966 426.624 144.246C427.267 143.521 428.128 143.159 429.208 143.159C430.293 143.159 431.154 143.521 431.792 144.246C432.435 144.966 432.756 145.944 432.756 147.179C432.756 148.414 432.435 149.394 431.792 150.118C431.154 150.838 430.293 151.198 429.208 151.198C428.128 151.198 427.267 150.838 426.624 150.118C425.986 149.394 425.667 148.414 425.667 147.179ZM436.078 147.808V141.901H434.048V140.363H438.081V147.808C438.081 148.409 438.175 148.835 438.362 149.086C438.549 149.337 438.865 149.462 439.312 149.462H440.911V151H438.751C437.799 151 437.115 150.754 436.701 150.262C436.286 149.77 436.078 148.951 436.078 147.808ZM443.379 143.344H447.344V149.462H449.832V151H442.846V149.462H445.341V144.882H443.379V143.344ZM445.341 139.618H447.344V141.956H445.341V139.618ZM457.557 150.61C457.22 150.806 456.857 150.952 456.47 151.048C456.083 151.148 455.666 151.198 455.219 151.198C454.039 151.198 453.116 150.843 452.451 150.132C451.785 149.421 451.453 148.437 451.453 147.179C451.453 145.916 451.787 144.93 452.457 144.219C453.127 143.503 454.052 143.146 455.233 143.146C455.643 143.146 456.037 143.193 456.415 143.289C456.798 143.385 457.179 143.533 457.557 143.733V145.565C457.265 145.315 456.944 145.123 456.593 144.991C456.247 144.854 455.887 144.786 455.513 144.786C454.861 144.786 454.36 144.993 454.009 145.408C453.658 145.823 453.483 146.413 453.483 147.179C453.483 147.944 453.658 148.532 454.009 148.942C454.36 149.353 454.861 149.558 455.513 149.558C455.9 149.558 456.263 149.494 456.6 149.366C456.937 149.234 457.256 149.036 457.557 148.771V150.61ZM463.6 151.827C463.331 152.547 463.008 153.071 462.629 153.399C462.256 153.732 461.8 153.898 461.262 153.898H459.608V152.374H460.421C460.831 152.374 461.132 152.303 461.324 152.162C461.515 152.025 461.709 151.704 461.905 151.198L462.055 150.788L459.143 143.344H461.248L462.998 148.313L464.673 143.344H466.779L463.6 151.827Z" fill="white"/>
<rect x="329" y="59" width="108" height="70" rx="18" fill="#FFC6D0" stroke="#F77189" stroke-width="4"/>
<path d="M366.702 100.464C365.759 100.464 365.288 100.004 365.288 99.0853V98.6258L365.829 97.4562C367.909 93.056 369.421 89.2546 370.364 86.052L370.697 85.0494H369.366C368.312 85.0494 367.562 85.0912 367.119 85.1748C366.675 85.2583 366.134 85.5229 365.496 85.9685C365.19 86.1634 364.885 86.414 364.58 86.7204C364.275 87.0267 364.011 87.3191 363.789 87.5976C363.567 87.8761 363.443 88.0432 363.415 88.0989C363.359 88.1268 363.151 88.1407 362.791 88.1407C362.264 88.1407 362 88.0014 362 87.7229C362 87.5558 362.264 87.0685 362.791 86.2609C363.318 85.4532 364.081 84.5899 365.079 83.6709C366.078 82.7519 367.063 82.2228 368.034 82.0835C368.228 82.0278 371.349 82 377.397 82C381.836 82 384.111 82.0139 384.222 82.0417C384.777 82.2367 385.054 82.6266 385.054 83.2114C385.054 84.0747 384.61 84.6595 383.723 84.9659C383.556 85.0216 382.599 85.0494 380.851 85.0494H378.188L378.063 85.7596C377.73 87.7647 377.564 89.4217 377.564 90.7306C377.564 92.1788 377.689 93.4738 377.938 94.6156C378.188 95.7574 378.452 96.6486 378.729 97.2891C379.006 97.9296 379.145 98.3195 379.145 98.4587C379.145 98.9322 378.951 99.3778 378.562 99.7955C378.174 100.213 377.675 100.422 377.064 100.422C376.759 100.422 376.51 100.38 376.315 100.297C376.121 100.213 375.899 99.879 375.649 99.2942C375.4 98.7094 375.178 97.8739 374.984 96.7878C374.956 96.5372 374.942 95.9245 374.942 94.9498C374.942 93.5852 375.067 92.1231 375.317 90.5635C375.566 89.004 375.816 87.7229 376.066 86.7204C376.315 85.7178 376.454 85.1608 376.482 85.0494H372.404L372.362 85.2165C372.362 85.3001 372.098 86.4001 371.571 88.5166C371.044 90.6332 370.448 92.875 369.782 95.2422C369.116 97.6093 368.686 98.96 368.492 99.2942C368.187 100.074 367.59 100.464 366.702 100.464Z" fill="black"/>
<path d="M385.783 112C385.665 111.882 385.606 111.803 385.606 111.764C385.606 111.705 386.381 108.554 387.931 102.313C389.48 96.0714 390.304 92.8128 390.402 92.5372C390.834 91.1983 391.393 90.0268 392.079 89.0226C392.766 88.0185 393.413 87.29 394.021 86.8371C395.119 85.9117 396.296 85.449 397.551 85.449H397.61C398.826 85.449 399.827 85.8231 400.611 86.5713C401.396 87.3195 401.788 88.2744 401.788 89.4361C401.788 91.5035 400.768 93.2164 398.728 94.575L399.111 94.9589C400.111 95.9631 400.611 97.2527 400.611 98.8279C400.611 101.053 399.778 102.894 398.111 104.351C396.443 105.808 394.57 106.546 392.491 106.566C391.903 106.566 391.373 106.487 390.902 106.329C390.432 106.172 390.059 105.985 389.784 105.768C389.51 105.552 389.294 105.325 389.137 105.089C388.98 104.853 388.862 104.666 388.784 104.528C388.705 104.39 388.656 104.331 388.637 104.351L386.754 111.823C386.715 111.941 386.519 112 386.165 112H385.783ZM395.315 93.5413C396.08 93.5413 396.806 93.6595 397.493 93.8957L397.64 93.8071C397.718 93.7284 397.787 93.6595 397.846 93.6004C397.905 93.5413 398.003 93.4429 398.14 93.305C398.277 93.1672 398.395 93.0294 398.493 92.8916C398.591 92.7537 398.699 92.5765 398.817 92.36C398.934 92.1434 399.052 91.9071 399.17 91.6511C399.287 91.3952 399.376 91.1097 399.434 90.7947C399.493 90.4796 399.572 90.1252 399.67 89.7314C399.709 89.5542 399.729 89.2294 399.729 88.7568C399.729 88.4024 399.719 88.176 399.699 88.0775C399.405 87.0734 398.66 86.5713 397.463 86.5713C396.639 86.5713 395.865 86.8076 395.139 87.2801C394.413 87.7527 393.815 88.3532 393.344 89.0817C392.874 89.8102 392.491 90.4796 392.197 91.09C391.903 91.7004 391.677 92.2812 391.52 92.8325C391.422 93.1475 391.049 94.5947 390.402 97.174C389.755 99.7533 389.421 101.132 389.402 101.309C389.382 101.407 389.372 101.614 389.372 101.929C389.372 102.874 389.588 103.652 390.02 104.262C390.628 105.089 391.481 105.503 392.579 105.503C393.403 105.503 394.276 105.256 395.198 104.764C396.12 104.272 396.865 103.425 397.434 102.224C397.748 101.555 397.983 100.797 398.14 99.9502C398.297 99.1035 398.375 98.4636 398.375 98.0305C398.375 96.8885 398.032 95.9729 397.346 95.2838C396.522 95.5595 395.786 95.6973 395.139 95.6973H394.845C393.295 95.6973 392.52 95.3921 392.52 94.7817C392.52 94.6439 392.55 94.5061 392.609 94.3683C392.883 93.817 393.786 93.5413 395.315 93.5413Z" fill="black"/>
<path d="M17.9248 151V140.794H19.9414V149.223H24.2549V151H17.9248ZM29.6074 147.404C28.86 147.404 28.3382 147.5 28.042 147.691C27.7458 147.883 27.5977 148.211 27.5977 148.676C27.5977 149.022 27.7002 149.298 27.9053 149.503C28.1104 149.708 28.3883 149.811 28.7393 149.811C29.2679 149.811 29.6781 149.612 29.9697 149.216C30.2614 148.815 30.4072 148.257 30.4072 147.541V147.404H29.6074ZM32.3965 146.632V151H30.4072V150.146C30.1657 150.483 29.8558 150.743 29.4775 150.925C29.0993 151.107 28.6823 151.198 28.2266 151.198C27.3561 151.198 26.6771 150.968 26.1895 150.508C25.7064 150.048 25.4648 149.405 25.4648 148.58C25.4648 147.687 25.7542 147.028 26.333 146.604C26.9118 146.176 27.8073 145.962 29.0195 145.962H30.4072V145.627C30.4072 145.303 30.2887 145.06 30.0518 144.896C29.8193 144.727 29.4753 144.643 29.0195 144.643C28.541 144.643 28.0762 144.704 27.625 144.827C27.1784 144.946 26.7113 145.137 26.2236 145.401V143.692C26.6657 143.51 27.1146 143.376 27.5703 143.289C28.026 143.202 28.5091 143.159 29.0195 143.159C30.2637 143.159 31.1364 143.412 31.6377 143.918C32.1436 144.424 32.3965 145.328 32.3965 146.632ZM37.9746 141.17V143.344H40.5928V144.882H37.9746V148.505C37.9746 148.847 38.0566 149.093 38.2207 149.243C38.3893 149.389 38.6673 149.462 39.0547 149.462H40.5928V151H38.9111C37.7627 151 36.9857 150.818 36.5801 150.453C36.1745 150.084 35.9717 149.403 35.9717 148.409V144.882H34.0166V143.344H35.9717V141.17H37.9746ZM49.2266 150.624C48.7617 150.815 48.2878 150.959 47.8047 151.055C47.3216 151.15 46.8112 151.198 46.2734 151.198C44.9928 151.198 44.013 150.856 43.334 150.173C42.6595 149.485 42.3223 148.496 42.3223 147.206C42.3223 145.957 42.6481 144.971 43.2998 144.246C43.9515 143.521 44.8402 143.159 45.9658 143.159C47.1006 143.159 47.9801 143.496 48.6045 144.171C49.2334 144.841 49.5479 145.786 49.5479 147.008V147.821H44.3594C44.3639 148.423 44.5417 148.872 44.8926 149.168C45.2435 149.464 45.7676 149.612 46.4648 149.612C46.9251 149.612 47.3786 149.546 47.8252 149.414C48.2718 149.282 48.7389 149.072 49.2266 148.785V150.624ZM47.5312 146.317C47.5221 145.789 47.3854 145.39 47.1211 145.121C46.8613 144.848 46.4762 144.711 45.9658 144.711C45.5055 144.711 45.1387 144.852 44.8652 145.135C44.5918 145.413 44.43 145.809 44.3799 146.324L47.5312 146.317ZM57.4502 146.03V151H55.4609V146.338C55.4609 145.782 55.3812 145.385 55.2217 145.148C55.0667 144.907 54.8115 144.786 54.4561 144.786C54.096 144.786 53.8112 144.948 53.6016 145.271C53.3965 145.595 53.2939 146.044 53.2939 146.618V151H51.3047V143.344H53.2939V144.492C53.4352 144.068 53.6768 143.74 54.0186 143.508C54.3604 143.275 54.7728 143.159 55.2559 143.159C55.9805 143.159 56.5273 143.401 56.8965 143.884C57.2656 144.362 57.4502 145.078 57.4502 146.03ZM63.2812 141.17V143.344H65.8994V144.882H63.2812V148.505C63.2812 148.847 63.3633 149.093 63.5273 149.243C63.696 149.389 63.974 149.462 64.3613 149.462H65.8994V151H64.2178C63.0693 151 62.2923 150.818 61.8867 150.453C61.4811 150.084 61.2783 149.403 61.2783 148.409V144.882H59.3232V143.344H61.2783V141.17H63.2812ZM79.6465 142.64L78.6963 146.816H80.6035L79.6465 142.64ZM78.416 140.794H80.8838L83.6387 151H81.6221L80.9932 148.478H78.293L77.6777 151H75.6611L78.416 140.794ZM91.124 150.61C90.7868 150.806 90.4245 150.952 90.0371 151.048C89.6497 151.148 89.2327 151.198 88.7861 151.198C87.6058 151.198 86.6829 150.843 86.0176 150.132C85.3522 149.421 85.0195 148.437 85.0195 147.179C85.0195 145.916 85.3545 144.93 86.0244 144.219C86.6943 143.503 87.6195 143.146 88.7998 143.146C89.21 143.146 89.6042 143.193 89.9824 143.289C90.3652 143.385 90.7458 143.533 91.124 143.733V145.565C90.8324 145.315 90.5111 145.123 90.1602 144.991C89.8138 144.854 89.4538 144.786 89.0801 144.786C88.4284 144.786 87.9271 144.993 87.5762 145.408C87.2253 145.823 87.0498 146.413 87.0498 147.179C87.0498 147.944 87.2253 148.532 87.5762 148.942C87.9271 149.353 88.4284 149.558 89.0801 149.558C89.4674 149.558 89.8298 149.494 90.167 149.366C90.5042 149.234 90.8232 149.036 91.124 148.771V150.61ZM97.0234 141.17V143.344H99.6416V144.882H97.0234V148.505C97.0234 148.847 97.1055 149.093 97.2695 149.243C97.4382 149.389 97.7161 149.462 98.1035 149.462H99.6416V151H97.96C96.8115 151 96.0345 150.818 95.6289 150.453C95.2233 150.084 95.0205 149.403 95.0205 148.409V144.882H93.0654V143.344H95.0205V141.17H97.0234ZM104.953 144.786C104.475 144.786 104.099 144.998 103.825 145.422C103.552 145.841 103.415 146.427 103.415 147.179C103.415 147.931 103.552 148.519 103.825 148.942C104.099 149.362 104.475 149.571 104.953 149.571C105.436 149.571 105.814 149.362 106.088 148.942C106.361 148.519 106.498 147.931 106.498 147.179C106.498 146.427 106.361 145.841 106.088 145.422C105.814 144.998 105.436 144.786 104.953 144.786ZM101.412 147.179C101.412 145.944 101.731 144.966 102.369 144.246C103.012 143.521 103.873 143.159 104.953 143.159C106.038 143.159 106.899 143.521 107.537 144.246C108.18 144.966 108.501 145.944 108.501 147.179C108.501 148.414 108.18 149.394 107.537 150.118C106.899 150.838 106.038 151.198 104.953 151.198C103.873 151.198 103.012 150.838 102.369 150.118C101.731 149.394 101.412 148.414 101.412 147.179ZM117.046 145.456C116.827 145.256 116.57 145.105 116.273 145.005C115.982 144.905 115.66 144.854 115.31 144.854C114.886 144.854 114.514 144.93 114.195 145.08C113.881 145.226 113.637 145.44 113.464 145.723C113.354 145.896 113.277 146.105 113.231 146.352C113.19 146.598 113.17 146.971 113.17 147.473V151H111.167V143.344H113.17V144.533C113.366 144.096 113.667 143.758 114.072 143.521C114.478 143.28 114.952 143.159 115.494 143.159C115.768 143.159 116.034 143.193 116.294 143.262C116.558 143.326 116.809 143.421 117.046 143.549V145.456Z" fill="white"/>
<rect x="26.5439" y="58" width="76.5375" height="70.2127" rx="18" fill="#FFD488" stroke="#BE7C21" stroke-width="4"/>
<path d="M48.8565 100.266C47.8823 100.266 47.3952 99.8115 47.3952 98.9024V98.4478L47.954 97.2906C50.1028 92.9376 51.6644 89.177 52.6385 86.0086L52.9824 85.0168H51.6071C50.5183 85.0168 49.7447 85.0581 49.2863 85.1408C48.8278 85.2234 48.2691 85.4852 47.6101 85.926C47.295 86.1188 46.9798 86.3668 46.6646 86.6699C46.3495 86.9729 46.0773 87.2622 45.848 87.5377C45.6188 87.8132 45.4899 87.9785 45.4612 88.0336C45.4039 88.0612 45.1891 88.0749 44.8166 88.0749C44.2722 88.0749 44 87.9372 44 87.6617C44 87.4964 44.2722 87.0142 44.8166 86.2153C45.361 85.4163 46.1489 84.5622 47.1804 83.6531C48.2118 82.7439 49.229 82.2204 50.2318 82.0827C50.4323 82.0276 53.6557 82 59.9018 82C64.4861 82 66.8355 82.0138 66.9501 82.0413C67.5232 82.2342 67.8097 82.6199 67.8097 83.1985C67.8097 84.0525 67.3513 84.6311 66.4344 84.9342C66.2625 84.9893 65.274 85.0168 63.4689 85.0168H60.7184L60.5894 85.7194C60.2456 87.703 60.0737 89.3423 60.0737 90.6372C60.0737 92.0698 60.2026 93.3509 60.4605 94.4805C60.7184 95.61 60.9906 96.4917 61.2771 97.1253C61.5636 97.759 61.7069 98.1447 61.7069 98.2825C61.7069 98.7508 61.5063 99.1916 61.1052 99.6049C60.704 100.018 60.1883 100.225 59.558 100.225C59.2428 100.225 58.9849 100.183 58.7844 100.101C58.5838 100.018 58.3546 99.6875 58.0967 99.109C57.8389 98.5304 57.6096 97.7039 57.4091 96.6294C57.3804 96.3815 57.3661 95.7754 57.3661 94.8111C57.3661 93.4611 57.495 92.0147 57.7529 90.4718C58.0108 88.929 58.2686 87.6617 58.5265 86.6699C58.7844 85.678 58.9276 85.127 58.9563 85.0168H54.7445L54.7015 85.1821C54.7015 85.2648 54.4293 86.353 53.8849 88.4469C53.3405 90.5407 52.7245 92.7586 52.0368 95.1004C51.3492 97.4422 50.9051 98.7784 50.7045 99.109C50.3894 99.8804 49.7734 100.266 48.8565 100.266Z" fill="black"/>
<path d="M80.1087 85.9088C80.1898 85.7919 80.3113 85.7335 80.4734 85.7335H80.7164H81.1114C81.233 85.8503 81.2938 85.9283 81.2938 85.9672C81.2938 86.1036 80.9899 87.3015 80.3822 89.561C80.2404 90.1064 80.0986 90.681 79.9568 91.2848C79.815 91.8886 79.6935 92.3366 79.5922 92.6288L79.4706 93.0963C79.4706 93.1158 79.5618 93.1255 79.7441 93.1255C79.9264 93.1255 80.2505 93.1839 80.7164 93.3008C81.1823 93.4177 81.6685 93.5832 82.1749 93.7975C83.0662 94.2065 83.8056 94.8006 84.3931 95.5798C84.9805 96.3589 85.2742 97.3036 85.2742 98.4139C85.2742 99.5241 84.9602 100.586 84.3323 101.599C83.7043 102.611 82.9244 103.449 81.9926 104.111C81.0608 104.774 80.0783 105.299 79.0452 105.689C78.0121 106.079 77.0499 106.283 76.1586 106.303H76.0371L75.3079 109.078C75.1863 109.526 75.0546 110.062 74.9128 110.685C74.7508 111.309 74.6394 111.679 74.5786 111.795C74.5178 111.912 74.3963 111.981 74.214 112H74.0317C73.6265 112 73.424 111.932 73.424 111.795C73.424 111.698 73.6468 110.773 74.0924 109.02L74.7913 106.332C74.7913 106.312 74.7103 106.303 74.5482 106.303C74.4469 106.303 74.2444 106.283 73.9405 106.244C73.6367 106.205 73.1809 106.069 72.5732 105.835C71.9655 105.601 71.4185 105.309 70.9324 104.959C70.4462 104.608 69.9904 104.092 69.565 103.41C69.1396 102.728 68.9472 101.93 68.9877 101.014C68.9877 99.8455 69.3219 98.745 69.9904 97.7126C70.6589 96.6803 71.4793 95.8427 72.4516 95.1999C73.424 94.5572 74.4064 94.0507 75.399 93.6806C76.3916 93.3105 77.2829 93.1255 78.0729 93.1255C78.1742 93.1255 78.235 93.0865 78.2552 93.0086L79.1668 89.4441C79.7947 87.1262 80.1087 85.9477 80.1087 85.9088ZM71.3881 101.628C71.3881 102.29 71.5097 102.865 71.7528 103.352C71.9959 103.839 72.3301 104.209 72.7555 104.462C73.1809 104.715 73.5455 104.89 73.8494 104.988C74.1532 105.085 74.4976 105.163 74.8825 105.222H75.0952L77.921 94.2065C77.84 94.2065 77.7285 94.2163 77.5867 94.2358C77.445 94.2552 77.1512 94.3332 76.7056 94.4695C76.2599 94.6059 75.8345 94.7617 75.4294 94.937C75.0243 95.1123 74.5786 95.3947 74.0924 95.7843C73.6063 96.1739 73.191 96.6219 72.8466 97.1283C72.482 97.6737 72.1478 98.3262 71.8439 99.0859C71.5401 99.9819 71.3881 100.829 71.3881 101.628ZM82.8738 97.7711C82.8738 97.0309 82.7117 96.3979 82.3876 95.8719C82.0635 95.346 81.6584 94.9759 81.1722 94.7617C80.6861 94.5474 80.291 94.4013 79.9872 94.3234C79.6833 94.2455 79.4403 94.2065 79.2579 94.2065H79.1668L77.7691 99.6702L76.3106 105.163C76.3106 105.202 76.3207 105.222 76.341 105.222C76.503 105.222 76.8271 105.163 77.3133 105.046C77.7994 104.929 78.2046 104.793 78.5287 104.637C79.3997 104.267 80.1492 103.751 80.7772 103.089C81.4052 102.426 81.8508 101.745 82.1142 101.043C82.3775 100.342 82.5699 99.7189 82.6915 99.1735C82.813 98.6281 82.8738 98.1606 82.8738 97.7711Z" fill="black"/>
<rect x="591" y="133" width="132.914" height="70.2127" rx="18" fill="#E0E7FF" stroke="#2F279E" stroke-width="4"/>
<path d="M626.504 177.9C626.504 177.24 626.514 176.74 626.534 176.4C626.554 176.06 626.574 175.87 626.595 175.83V175.71L626.143 175.83C625.22 176.05 624.377 176.16 623.615 176.16C621.709 176.16 620.053 175.59 618.649 174.45C617.244 173.31 616.371 171.65 616.03 169.47C616.01 169.31 616 168.88 616 168.18C616 166.14 616.482 164.2 617.445 162.36C618.408 160.52 619.702 158.89 621.327 157.47C623.815 155.41 626.314 154.38 628.822 154.38C629.584 154.38 630.066 154.39 630.266 154.41C632.213 154.69 633.778 155.55 634.962 156.99C636.146 158.43 636.748 160.25 636.768 162.45C636.768 166.05 635.283 169.33 632.313 172.29C631.049 173.49 629.735 174.4 628.37 175.02L627.859 175.26V175.41C627.859 175.43 627.909 175.7 628.009 176.22C628.109 176.74 628.32 177.16 628.641 177.48C628.962 177.8 629.424 177.96 630.026 177.96C630.728 177.96 631.4 177.74 632.042 177.3C632.684 176.86 633.106 176.29 633.306 175.59C633.427 175.31 633.557 175.17 633.698 175.17C633.878 175.17 633.989 175.26 634.029 175.44C634.029 175.6 633.928 175.96 633.728 176.52C633.527 177.08 633.246 177.74 632.885 178.5C632.524 179.26 631.982 179.91 631.26 180.45C630.537 180.99 629.775 181.28 628.972 181.32C627.327 181.32 626.504 180.25 626.504 178.11V177.9ZM633.637 161.46C633.637 160.36 633.487 159.4 633.186 158.58C632.885 157.76 632.474 157.15 631.952 156.75C631.43 156.35 630.929 156.05 630.447 155.85C629.965 155.65 629.434 155.55 628.852 155.55C627.889 155.55 626.906 155.8 625.902 156.3C623.856 157.28 622.21 159.04 620.966 161.58C619.722 164.12 619.1 166.6 619.1 169.02C619.1 171.14 619.642 172.71 620.725 173.73C621.207 174.15 621.498 174.36 621.598 174.36V174.12C621.598 173.32 621.929 172.58 622.591 171.9C623.254 171.22 624.036 170.87 624.939 170.85C625.441 170.85 625.872 170.96 626.233 171.18C626.595 171.4 626.865 171.7 627.046 172.08C627.227 172.46 627.347 172.78 627.407 173.04C627.467 173.3 627.528 173.57 627.588 173.85L627.979 173.58C629.263 172.7 630.357 171.49 631.26 169.95C632.163 168.41 632.785 166.92 633.126 165.48C633.467 164.04 633.637 162.7 633.637 161.46ZM623.946 174.96C624.909 174.96 625.812 174.75 626.655 174.33L626.625 174.03C626.544 172.93 626.173 172.27 625.511 172.05C625.27 172.01 625.08 171.99 624.939 171.99C624.879 171.99 624.819 171.99 624.759 171.99C624.698 171.99 624.658 171.98 624.638 171.96C624.237 171.96 623.825 172.16 623.404 172.56C622.983 172.96 622.762 173.42 622.742 173.94C622.742 174.62 623.143 174.96 623.946 174.96Z" fill="black"/>
<path d="M641.132 168C641.132 166.62 641.232 165.31 641.433 164.07C641.633 162.83 641.864 161.76 642.125 160.86C642.386 159.96 642.757 159.08 643.239 158.22C643.72 157.36 644.102 156.69 644.382 156.21C644.663 155.73 645.085 155.21 645.647 154.65C646.208 154.09 646.539 153.75 646.64 153.63C646.74 153.51 646.991 153.3 647.392 153H647.784H647.904C648.185 153 648.325 153.09 648.325 153.27C648.325 153.33 648.155 153.54 647.814 153.9C647.472 154.26 647.061 154.79 646.58 155.49C646.098 156.19 645.606 157.05 645.105 158.07C644.603 159.09 644.182 160.47 643.841 162.21C643.5 163.95 643.329 165.88 643.329 168C643.329 170.12 643.5 172.04 643.841 173.76C644.182 175.48 644.593 176.87 645.075 177.93C645.556 178.99 646.048 179.85 646.549 180.51C647.051 181.17 647.472 181.7 647.814 182.1C648.155 182.5 648.325 182.71 648.325 182.73C648.325 182.91 648.175 183 647.874 183H647.784H647.392L646.549 182.28C644.663 180.58 643.289 178.46 642.426 175.92C641.563 173.38 641.132 170.74 641.132 168Z" fill="black"/>
<path d="M653.953 166.83C653.953 166.19 654.114 165.54 654.435 164.88C654.756 164.22 655.318 163.61 656.12 163.05C656.923 162.49 657.896 162.22 659.04 162.24C660.284 162.24 661.187 162.51 661.749 163.05C662.31 163.59 662.601 164.19 662.621 164.85C662.621 165.49 662.451 165.96 662.11 166.26C661.769 166.56 661.387 166.72 660.966 166.74C660.705 166.74 660.464 166.66 660.244 166.5C660.023 166.34 659.902 166.08 659.882 165.72C659.882 165.4 659.973 165.12 660.153 164.88C660.334 164.64 660.504 164.46 660.665 164.34C660.825 164.22 660.956 164.16 661.056 164.16C661.076 164.16 661.086 164.15 661.086 164.13C661.086 164.07 661.016 163.98 660.876 163.86C660.735 163.74 660.484 163.63 660.123 163.53C659.762 163.43 659.371 163.37 658.949 163.35C657.986 163.35 657.284 163.61 656.843 164.13C656.401 164.65 656.17 165.18 656.15 165.72C656.15 166.22 656.341 166.57 656.722 166.77C657.103 166.97 657.655 167.14 658.378 167.28C659.1 167.42 659.622 167.57 659.943 167.73C661.267 168.31 661.929 169.27 661.929 170.61C661.929 171.17 661.819 171.73 661.598 172.29C661.377 172.85 661.046 173.41 660.605 173.97C660.163 174.53 659.531 174.97 658.709 175.29C657.886 175.61 656.943 175.78 655.879 175.8C654.334 175.8 653.241 175.51 652.599 174.93C651.957 174.35 651.626 173.67 651.605 172.89C651.605 172.11 651.816 171.55 652.238 171.21C652.659 170.87 653.1 170.7 653.562 170.7C653.863 170.7 654.144 170.79 654.405 170.97C654.665 171.15 654.806 171.46 654.826 171.9C654.826 172.42 654.645 172.86 654.284 173.22C653.923 173.58 653.612 173.76 653.351 173.76C653.311 173.78 653.281 173.79 653.261 173.79C653.241 173.79 653.231 173.81 653.231 173.85C653.251 173.91 653.331 173.99 653.472 174.09C653.612 174.19 653.923 174.32 654.405 174.48C654.886 174.64 655.438 174.71 656.06 174.69C656.782 174.69 657.404 174.58 657.926 174.36C658.448 174.14 658.829 173.86 659.07 173.52C659.311 173.18 659.481 172.87 659.581 172.59C659.682 172.31 659.732 172.06 659.732 171.84C659.732 171.28 659.521 170.86 659.1 170.58C658.679 170.3 658.197 170.13 657.655 170.07C657.113 170.01 656.521 169.86 655.879 169.62C655.237 169.38 654.766 169.03 654.465 168.57C654.124 168.07 653.953 167.49 653.953 166.83Z" fill="black"/>
<path d="M666.475 174.45C666.475 174.45 666.475 174.2 666.475 173.7C666.475 173.2 666.635 172.77 666.956 172.41C667.277 172.05 667.709 171.87 668.25 171.87C668.812 171.87 669.314 172.12 669.755 172.62C670.197 173.12 670.427 174 670.448 175.26C670.448 175.96 670.357 176.64 670.177 177.3C669.996 177.96 669.785 178.53 669.545 179.01C669.304 179.49 669.043 179.9 668.762 180.24C668.481 180.58 668.24 180.85 668.04 181.05C667.839 181.25 667.709 181.34 667.648 181.32C667.568 181.32 667.438 181.23 667.257 181.05C667.077 180.87 666.986 180.74 666.986 180.66C666.986 180.58 667.097 180.42 667.317 180.18C667.538 179.94 667.789 179.64 668.07 179.28C668.351 178.92 668.612 178.42 668.852 177.78C669.093 177.14 669.254 176.41 669.334 175.59V175.23L669.304 175.26C669.264 175.28 669.214 175.3 669.153 175.32C669.093 175.34 669.033 175.37 668.973 175.41C668.913 175.45 668.822 175.47 668.702 175.47C668.581 175.47 668.461 175.48 668.341 175.5C667.799 175.5 667.357 175.33 667.016 174.99L666.475 174.45Z" fill="black"/>
<path d="M678.505 170.79C678.505 168.77 679.267 166.85 680.792 165.03C682.317 163.21 684.033 162.29 685.939 162.27C686.962 162.27 687.865 162.76 688.648 163.74C688.969 163.14 689.43 162.84 690.032 162.84C690.293 162.84 690.524 162.92 690.725 163.08C690.925 163.24 691.026 163.44 691.026 163.68C691.026 163.94 690.654 165.54 689.912 168.48C689.17 171.42 688.788 173.08 688.768 173.46C688.768 173.96 688.839 174.29 688.979 174.45C689.119 174.61 689.33 174.7 689.611 174.72C689.792 174.7 689.992 174.61 690.213 174.45C690.634 174.05 691.046 173.09 691.447 171.57C691.567 171.17 691.668 170.96 691.748 170.94C691.788 170.92 691.888 170.91 692.049 170.91H692.169C692.551 170.91 692.741 171 692.741 171.18C692.741 171.3 692.691 171.57 692.591 171.99C692.49 172.41 692.29 172.95 691.989 173.61C691.688 174.27 691.367 174.77 691.026 175.11C690.765 175.37 690.444 175.58 690.063 175.74C689.902 175.78 689.661 175.8 689.34 175.8C688.658 175.8 688.086 175.65 687.625 175.35C687.163 175.05 686.862 174.74 686.722 174.42L686.541 173.97C686.521 173.95 686.481 173.96 686.421 174C686.381 174.04 686.34 174.08 686.3 174.12C685.116 175.24 683.912 175.8 682.689 175.8C681.585 175.8 680.612 175.4 679.769 174.6C678.926 173.8 678.505 172.53 678.505 170.79ZM688.076 165.66C688.076 165.54 688.026 165.32 687.926 165C687.825 164.68 687.594 164.33 687.233 163.95C686.872 163.57 686.411 163.37 685.849 163.35C685.147 163.35 684.474 163.66 683.832 164.28C683.19 164.9 682.689 165.71 682.327 166.71C681.745 168.29 681.334 169.93 681.093 171.63C681.093 171.69 681.093 171.8 681.093 171.96C681.093 172.12 681.083 172.24 681.063 172.32C681.063 173.22 681.244 173.84 681.605 174.18C681.966 174.52 682.398 174.7 682.899 174.72C683.662 174.72 684.414 174.39 685.157 173.73C685.899 173.07 686.34 172.56 686.481 172.2C686.521 172.12 686.792 171.05 687.294 168.99C687.795 166.93 688.056 165.82 688.076 165.66Z" fill="black"/>
<path d="M695.239 153.03L695.36 153C695.46 153 695.56 153 695.661 153H696.022L696.865 153.72C698.751 155.42 700.125 157.54 700.988 160.08C701.851 162.62 702.282 165.26 702.282 168C702.282 169.36 702.182 170.67 701.981 171.93C701.781 173.19 701.55 174.26 701.289 175.14C701.028 176.02 700.657 176.9 700.175 177.78C699.694 178.66 699.313 179.33 699.032 179.79C698.751 180.25 698.339 180.76 697.798 181.32C697.256 181.88 696.935 182.21 696.835 182.31C696.734 182.41 696.503 182.6 696.142 182.88C696.082 182.94 696.042 182.98 696.022 183H695.661C695.5 183 695.39 183 695.33 183C695.269 183 695.219 182.97 695.179 182.91C695.139 182.85 695.109 182.76 695.089 182.64C695.109 182.62 695.219 182.49 695.42 182.25C698.53 179.03 700.085 174.28 700.085 168C700.085 161.72 698.53 156.97 695.42 153.75C695.219 153.51 695.109 153.38 695.089 153.36C695.089 153.2 695.139 153.09 695.239 153.03Z" fill="black"/>
<rect x="769" y="58" width="75.5308" height="70.2127" rx="18" fill="#F0F4F8" stroke="#9197AE" stroke-width="4"/>
<path d="M800.256 100.783H791.174V86.2028H800.256V88.7418H794.055V91.8864H799.67V94.4254H794.055V98.2438H800.256V100.783ZM812.043 93.6832V100.783H809.201V94.1227C809.201 93.3284 809.087 92.762 808.859 92.4235C808.638 92.0784 808.274 91.9059 807.766 91.9059C807.251 91.9059 806.845 92.137 806.545 92.5992C806.252 93.0615 806.106 93.7028 806.106 94.5231V100.783H803.264V89.8453H806.106V91.486C806.307 90.8805 806.652 90.4117 807.141 90.0797C807.629 89.7477 808.218 89.5817 808.908 89.5817C809.943 89.5817 810.725 89.9267 811.252 90.6168C811.779 91.3004 812.043 92.3226 812.043 93.6832ZM824.895 89.8453L821.418 100.783H817.893L814.416 89.8453H817.317L819.651 98.3805L821.994 89.8453H824.895Z" fill="black"/>
<path d="M767 94L752 85.3397V102.66L767 94ZM439 94V95.5L753.5 95.5V94V92.5L439 92.5V94Z" fill="white"/>
<rect x="191.5" y="64.5001" width="80.5577" height="59.6471" rx="18.5" fill="#FAFAFA" stroke="#FFE477" stroke-width="3"/>
<path d="M228.161 90.3871C227.944 90.3871 227.369 90.2676 226.435 90.0288C225.501 89.79 224.817 89.6706 224.383 89.6706C223.949 89.6706 223.58 89.714 223.276 89.8008C222.972 89.8877 222.722 89.9963 222.527 90.1265C222.331 90.2568 222.201 90.3762 222.136 90.4848C222.071 90.5933 221.995 90.7127 221.908 90.843L221.843 90.9733C221.778 91.0384 221.615 91.071 221.354 91.071C220.898 91.071 220.671 90.9841 220.671 90.8104C220.671 90.7019 220.703 90.5499 220.768 90.3545C221.05 89.5077 221.517 88.7804 222.169 88.1725C222.82 87.5646 223.536 87.1955 224.318 87.0652C224.579 87.0218 224.763 87.0001 224.872 87.0001C225.414 87.0001 225.903 87.1846 226.337 87.5537C226.771 87.9228 227.184 88.281 227.575 88.6284C227.966 88.9758 228.378 89.1604 228.812 89.1821C229.29 89.1821 229.768 88.8238 230.245 88.1073C230.723 87.3909 230.973 87.0326 230.994 87.0326C231.016 87.0109 231.179 87.0001 231.483 87.0001H231.906C232.037 87.1303 232.102 87.2172 232.102 87.2606C232.102 87.3474 232.047 87.4994 231.939 87.7165C231.83 87.9337 231.678 88.1616 231.483 88.4005C231.287 88.6393 231.103 88.8781 230.929 89.1169C230.756 89.3558 230.604 89.562 230.473 89.7357L230.245 90.0288C229.312 91.1361 227.835 92.6016 225.816 94.4254C223.797 96.2492 222.549 97.4216 222.071 97.9427L221.68 98.3335L222.169 98.3661C222.646 98.3661 223.341 98.4855 224.253 98.7243C225.165 98.9631 225.849 99.0825 226.305 99.0825C227.13 99.0825 227.89 98.8763 228.584 98.4638C229.279 98.0512 229.735 97.5084 229.952 96.8354C230.039 96.64 230.115 96.5206 230.18 96.4771C230.245 96.4337 230.408 96.412 230.669 96.412C231.081 96.412 231.287 96.5206 231.287 96.7377C231.287 96.8462 231.277 96.9439 231.255 97.0308C230.886 98.3769 230.169 99.4951 229.105 100.385C228.042 101.275 226.978 101.731 225.914 101.753C225.349 101.753 224.85 101.569 224.416 101.199C223.982 100.83 223.558 100.461 223.146 100.092C222.733 99.723 222.321 99.5385 221.908 99.5385C220.953 99.5385 220.095 100.19 219.335 101.493C219.205 101.666 219.02 101.753 218.782 101.753H218.619H218.195C218.065 101.623 218 101.525 218 101.46C218 101.134 218.63 100.201 219.889 98.6592C220.736 97.6821 222.169 96.2709 224.188 94.4254C226.207 92.5799 227.455 91.4075 227.933 90.9081C228.194 90.5608 228.27 90.3871 228.161 90.3871Z" fill="black"/>
<path d="M242.496 90.4386C242.557 90.3465 242.649 90.3004 242.772 90.3004H242.956H243.255C243.348 90.3925 243.394 90.4539 243.394 90.4846C243.394 90.5921 243.163 91.5361 242.703 93.3167C242.595 93.7465 242.488 94.1994 242.381 94.6752C242.273 95.1511 242.181 95.5041 242.104 95.7344L242.012 96.1028C242.012 96.1181 242.081 96.1258 242.219 96.1258C242.357 96.1258 242.603 96.1718 242.956 96.2639C243.309 96.356 243.678 96.4865 244.061 96.6554C244.737 96.9777 245.297 97.4459 245.742 98.0599C246.187 98.6739 246.41 99.4184 246.41 100.293C246.41 101.168 246.172 102.005 245.696 102.803C245.22 103.601 244.629 104.261 243.923 104.783C243.217 105.305 242.473 105.72 241.69 106.027C240.907 106.334 240.178 106.495 239.502 106.51H239.41L238.858 108.697C238.766 109.051 238.666 109.473 238.558 109.964C238.436 110.455 238.351 110.747 238.305 110.839C238.259 110.931 238.167 110.985 238.029 111H237.891C237.584 111 237.43 110.946 237.43 110.839C237.43 110.762 237.599 110.033 237.937 108.651L238.466 106.533C238.466 106.518 238.405 106.51 238.282 106.51C238.205 106.51 238.052 106.495 237.822 106.464C237.591 106.433 237.246 106.326 236.785 106.142C236.325 105.958 235.91 105.727 235.542 105.451C235.174 105.175 234.828 104.768 234.506 104.231C234.184 103.693 234.038 103.064 234.068 102.343C234.068 101.422 234.322 100.554 234.828 99.7407C235.335 98.9272 235.957 98.2671 236.693 97.7606C237.43 97.254 238.175 96.8549 238.927 96.5633C239.679 96.2716 240.354 96.1258 240.953 96.1258C241.03 96.1258 241.076 96.0951 241.091 96.0337L241.782 93.2246C242.258 91.398 242.496 90.4693 242.496 90.4386ZM235.887 102.826C235.887 103.348 235.98 103.801 236.164 104.185C236.348 104.568 236.601 104.86 236.924 105.06C237.246 105.259 237.522 105.397 237.752 105.474C237.983 105.551 238.244 105.612 238.535 105.658H238.697L240.838 96.9777C240.776 96.9777 240.692 96.9854 240.585 97.0007C240.477 97.0161 240.255 97.0775 239.917 97.1849C239.579 97.2924 239.257 97.4152 238.95 97.5533C238.643 97.6915 238.305 97.9141 237.937 98.2211C237.568 98.5281 237.254 98.8811 236.993 99.2802C236.716 99.71 236.463 100.224 236.233 100.823C236.003 101.529 235.887 102.197 235.887 102.826ZM244.591 99.7868C244.591 99.2035 244.468 98.7046 244.223 98.2901C243.977 97.8757 243.67 97.584 243.302 97.4152C242.933 97.2463 242.634 97.1312 242.404 97.0698C242.173 97.0084 241.989 96.9777 241.851 96.9777H241.782L240.723 101.283L239.618 105.612C239.618 105.643 239.625 105.658 239.641 105.658C239.763 105.658 240.009 105.612 240.377 105.52C240.746 105.428 241.053 105.32 241.298 105.198C241.958 104.906 242.526 104.499 243.002 103.977C243.478 103.455 243.816 102.918 244.015 102.366C244.215 101.813 244.361 101.322 244.453 100.892C244.545 100.462 244.591 100.094 244.591 99.7868Z" fill="black"/>
<rect x="495.5" y="63.5" width="98" height="60" rx="18.5" fill="#FAFAFA" stroke="#FFE477" stroke-width="3"/>
<path d="M190 94L175.101 85.1679L174.901 102.487L190 94ZM103 93L102.983 94.4999L176.484 95.3447L176.501 93.8448L176.518 92.3449L103.017 91.5001L103 93Z" fill="white"/>
<path d="M326 94.0087L311 85.3484L311 102.669L326 94.0087ZM273 94.0087L273 95.5087L312.5 95.5087L312.5 94.0087L312.5 92.5087L273 92.5087L273 94.0087Z" fill="white"/>
<path d="M672 110.395C672 110.357 672.031 110.313 672.094 110.263H685.855C685.918 110.313 685.949 110.357 685.949 110.395C685.949 110.42 684.887 112.619 682.763 116.992C680.64 121.366 679.553 123.577 679.502 123.628C679.44 123.716 679.264 123.76 678.975 123.76C678.686 123.76 678.51 123.716 678.447 123.628C678.409 123.577 677.328 121.366 675.205 116.992C673.081 112.619 672.013 110.42 672 110.395ZM684.271 111.903C684.271 111.89 682.688 111.884 679.521 111.884C676.354 111.884 674.771 111.89 674.771 111.903C674.796 111.966 675.588 113.599 677.146 116.804C678.704 120.008 679.496 121.617 679.521 121.63L684.271 111.903Z" fill="white"/>
<path d="M698.541 124.646C698.541 124.231 698.547 123.917 698.559 123.703C698.572 123.489 698.585 123.37 698.597 123.345V123.27L698.314 123.345C697.736 123.483 697.209 123.552 696.731 123.552C695.537 123.552 694.5 123.194 693.621 122.478C692.741 121.762 692.194 120.719 691.981 119.349C691.968 119.248 691.962 118.978 691.962 118.538C691.962 117.256 692.264 116.037 692.867 114.881C693.47 113.725 694.28 112.701 695.298 111.809C696.857 110.514 698.421 109.867 699.992 109.867C700.47 109.867 700.771 109.873 700.897 109.886C702.116 110.062 703.096 110.602 703.838 111.507C704.579 112.412 704.956 113.555 704.969 114.938C704.969 117.2 704.039 119.261 702.179 121.121C701.387 121.875 700.564 122.446 699.709 122.836L699.389 122.987V123.081C699.389 123.094 699.42 123.263 699.483 123.59C699.546 123.917 699.678 124.181 699.879 124.382C700.08 124.583 700.369 124.683 700.746 124.683C701.186 124.683 701.607 124.545 702.009 124.269C702.411 123.992 702.675 123.634 702.801 123.194C702.876 123.018 702.958 122.93 703.046 122.93C703.159 122.93 703.228 122.987 703.253 123.1C703.253 123.2 703.19 123.427 703.065 123.779C702.939 124.13 702.763 124.545 702.537 125.023C702.311 125.5 701.971 125.909 701.519 126.248C701.067 126.587 700.589 126.769 700.086 126.795C699.056 126.795 698.541 126.122 698.541 124.778V124.646ZM703.008 114.316C703.008 113.625 702.914 113.021 702.725 112.506C702.537 111.991 702.279 111.608 701.952 111.356C701.626 111.105 701.312 110.916 701.01 110.791C700.708 110.665 700.375 110.602 700.011 110.602C699.408 110.602 698.792 110.759 698.164 111.074C696.882 111.689 695.851 112.795 695.072 114.391C694.293 115.987 693.903 117.545 693.903 119.066C693.903 120.398 694.243 121.385 694.921 122.025C695.223 122.289 695.405 122.421 695.468 122.421V122.271C695.468 121.768 695.675 121.303 696.09 120.876C696.505 120.448 696.995 120.228 697.56 120.216C697.875 120.216 698.145 120.285 698.371 120.423C698.597 120.561 698.767 120.75 698.88 120.989C698.993 121.227 699.068 121.429 699.106 121.592C699.144 121.755 699.182 121.925 699.219 122.101L699.464 121.931C700.269 121.378 700.953 120.618 701.519 119.65C702.084 118.683 702.474 117.746 702.688 116.842C702.901 115.937 703.008 115.095 703.008 114.316ZM696.938 122.798C697.542 122.798 698.107 122.666 698.635 122.402L698.616 122.214C698.566 121.523 698.333 121.108 697.919 120.97C697.768 120.945 697.648 120.932 697.56 120.932C697.523 120.932 697.485 120.932 697.447 120.932C697.41 120.932 697.384 120.926 697.372 120.913C697.121 120.913 696.863 121.039 696.599 121.29C696.335 121.542 696.197 121.831 696.184 122.157C696.184 122.585 696.436 122.798 696.938 122.798Z" fill="white"/>
<path d="M707.702 118.425C707.702 117.558 707.765 116.735 707.891 115.956C708.016 115.177 708.161 114.504 708.324 113.939C708.488 113.373 708.72 112.82 709.022 112.28C709.323 111.74 709.562 111.319 709.738 111.017C709.914 110.715 710.178 110.389 710.53 110.037C710.882 109.685 711.089 109.471 711.152 109.396C711.215 109.32 711.372 109.188 711.623 109H711.868H711.943C712.119 109 712.207 109.057 712.207 109.17C712.207 109.207 712.101 109.339 711.887 109.565C711.673 109.792 711.416 110.125 711.114 110.565C710.812 111.004 710.505 111.545 710.19 112.186C709.876 112.827 709.612 113.694 709.399 114.787C709.185 115.88 709.078 117.093 709.078 118.425C709.078 119.757 709.185 120.964 709.399 122.044C709.612 123.125 709.87 123.998 710.172 124.664C710.473 125.33 710.781 125.871 711.095 126.286C711.409 126.7 711.673 127.033 711.887 127.285C712.101 127.536 712.207 127.668 712.207 127.68C712.207 127.794 712.113 127.85 711.925 127.85H711.868H711.623L711.095 127.398C709.914 126.33 709.053 124.997 708.513 123.401C707.972 121.805 707.702 120.147 707.702 118.425Z" fill="white"/>
<path d="M715.732 117.69C715.732 117.288 715.833 116.879 716.034 116.465C716.235 116.05 716.587 115.667 717.089 115.315C717.592 114.963 718.201 114.793 718.918 114.806C719.697 114.806 720.262 114.975 720.614 115.315C720.966 115.654 721.148 116.031 721.161 116.446C721.161 116.848 721.054 117.143 720.84 117.332C720.627 117.52 720.388 117.621 720.124 117.633C719.961 117.633 719.81 117.583 719.672 117.483C719.533 117.382 719.458 117.219 719.446 116.992C719.446 116.791 719.502 116.615 719.615 116.465C719.728 116.314 719.835 116.201 719.936 116.125C720.036 116.05 720.118 116.012 720.181 116.012C720.193 116.012 720.2 116.006 720.2 115.993C720.2 115.956 720.156 115.899 720.068 115.824C719.98 115.748 719.823 115.679 719.596 115.616C719.37 115.554 719.125 115.516 718.861 115.503C718.258 115.503 717.818 115.667 717.542 115.993C717.265 116.32 717.121 116.653 717.108 116.992C717.108 117.307 717.227 117.526 717.466 117.652C717.705 117.778 718.051 117.885 718.503 117.973C718.955 118.061 719.282 118.155 719.483 118.255C720.313 118.62 720.727 119.223 720.727 120.065C720.727 120.417 720.658 120.769 720.52 121.121C720.382 121.472 720.174 121.824 719.898 122.176C719.621 122.528 719.226 122.805 718.71 123.006C718.195 123.207 717.604 123.313 716.938 123.326C715.971 123.326 715.286 123.144 714.884 122.779C714.482 122.415 714.274 121.988 714.262 121.498C714.262 121.007 714.394 120.656 714.658 120.442C714.921 120.228 715.198 120.122 715.487 120.122C715.675 120.122 715.851 120.178 716.015 120.291C716.178 120.404 716.266 120.599 716.279 120.876C716.279 121.202 716.166 121.479 715.939 121.705C715.713 121.931 715.518 122.044 715.355 122.044C715.33 122.057 715.311 122.063 715.298 122.063C715.286 122.063 715.28 122.076 715.28 122.101C715.292 122.138 715.342 122.189 715.43 122.252C715.518 122.314 715.713 122.396 716.015 122.497C716.316 122.597 716.662 122.641 717.052 122.629C717.504 122.629 717.894 122.559 718.22 122.421C718.547 122.283 718.786 122.107 718.937 121.893C719.087 121.68 719.194 121.485 719.257 121.309C719.32 121.133 719.351 120.976 719.351 120.838C719.351 120.486 719.219 120.222 718.955 120.046C718.692 119.87 718.39 119.763 718.051 119.726C717.711 119.688 717.341 119.594 716.938 119.443C716.536 119.292 716.241 119.072 716.052 118.783C715.839 118.469 715.732 118.105 715.732 117.69Z" fill="white"/>
<path d="M723.574 122.478C723.574 122.478 723.574 122.321 723.574 122.007C723.574 121.692 723.675 121.422 723.876 121.196C724.077 120.97 724.347 120.857 724.686 120.857C725.038 120.857 725.352 121.014 725.629 121.328C725.905 121.642 726.05 122.195 726.062 122.987C726.062 123.427 726.006 123.854 725.893 124.269C725.78 124.683 725.648 125.041 725.497 125.343C725.346 125.645 725.183 125.902 725.007 126.116C724.831 126.33 724.68 126.499 724.554 126.625C724.429 126.751 724.347 126.807 724.309 126.795C724.259 126.795 724.177 126.738 724.064 126.625C723.951 126.512 723.895 126.43 723.895 126.38C723.895 126.33 723.964 126.229 724.102 126.078C724.24 125.927 724.397 125.739 724.573 125.513C724.749 125.287 724.913 124.972 725.063 124.57C725.214 124.168 725.315 123.709 725.365 123.194V122.968L725.346 122.987C725.321 122.999 725.29 123.012 725.252 123.025C725.214 123.037 725.176 123.056 725.139 123.081C725.101 123.106 725.045 123.119 724.969 123.119C724.894 123.119 724.818 123.125 724.743 123.138C724.404 123.138 724.127 123.031 723.914 122.817L723.574 122.478Z" fill="white"/>
<path d="M731.108 120.178C731.108 118.909 731.586 117.702 732.541 116.559C733.496 115.415 734.571 114.837 735.764 114.825C736.405 114.825 736.971 115.133 737.461 115.748C737.662 115.371 737.951 115.183 738.328 115.183C738.491 115.183 738.636 115.233 738.762 115.334C738.887 115.434 738.95 115.56 738.95 115.711C738.95 115.874 738.718 116.879 738.253 118.727C737.788 120.574 737.549 121.617 737.536 121.856C737.536 122.17 737.58 122.377 737.668 122.478C737.756 122.578 737.888 122.635 738.064 122.647C738.177 122.635 738.303 122.578 738.441 122.478C738.705 122.226 738.963 121.623 739.214 120.668C739.289 120.417 739.352 120.285 739.402 120.272C739.428 120.26 739.49 120.253 739.591 120.253H739.666C739.905 120.253 740.025 120.31 740.025 120.423C740.025 120.499 739.993 120.668 739.93 120.932C739.867 121.196 739.742 121.535 739.553 121.95C739.365 122.365 739.164 122.679 738.95 122.892C738.787 123.056 738.586 123.188 738.347 123.288C738.246 123.313 738.096 123.326 737.894 123.326C737.467 123.326 737.109 123.232 736.82 123.043C736.531 122.855 736.342 122.66 736.254 122.459L736.141 122.176C736.129 122.164 736.104 122.17 736.066 122.195C736.041 122.22 736.016 122.245 735.991 122.27C735.249 122.974 734.495 123.326 733.729 123.326C733.037 123.326 732.428 123.075 731.9 122.572C731.372 122.069 731.108 121.271 731.108 120.178ZM737.103 116.955C737.103 116.879 737.071 116.741 737.008 116.54C736.946 116.339 736.801 116.119 736.575 115.88C736.349 115.641 736.06 115.516 735.708 115.503C735.268 115.503 734.847 115.698 734.445 116.088C734.043 116.477 733.729 116.986 733.502 117.614C733.138 118.607 732.88 119.638 732.73 120.706C732.73 120.744 732.73 120.813 732.73 120.913C732.73 121.014 732.723 121.089 732.711 121.139C732.711 121.705 732.824 122.095 733.05 122.308C733.276 122.522 733.546 122.635 733.861 122.647C734.338 122.647 734.809 122.44 735.274 122.025C735.739 121.611 736.016 121.29 736.104 121.064C736.129 121.014 736.298 120.341 736.613 119.047C736.927 117.753 737.09 117.055 737.103 116.955Z" fill="white"/>
<path d="M741.589 109.019L741.665 109C741.728 109 741.79 109 741.853 109H742.079L742.607 109.452C743.789 110.521 744.649 111.853 745.19 113.449C745.73 115.045 746 116.703 746 118.425C746 119.28 745.937 120.103 745.812 120.894C745.686 121.686 745.542 122.358 745.378 122.911C745.215 123.464 744.982 124.017 744.681 124.57C744.379 125.123 744.14 125.544 743.964 125.833C743.789 126.122 743.531 126.443 743.192 126.794C742.852 127.146 742.651 127.354 742.588 127.417C742.526 127.479 742.381 127.599 742.155 127.775C742.117 127.812 742.092 127.838 742.079 127.85H741.853C741.753 127.85 741.684 127.85 741.646 127.85C741.608 127.85 741.577 127.831 741.552 127.794C741.527 127.756 741.508 127.699 741.495 127.624C741.508 127.611 741.577 127.53 741.702 127.379C743.65 125.356 744.624 122.371 744.624 118.425C744.624 114.479 743.65 111.494 741.702 109.471C741.577 109.32 741.508 109.239 741.495 109.226C741.495 109.126 741.527 109.057 741.589 109.019Z" fill="white"/>
<path d="M509 93.5887C509 91.7895 509.677 90.0794 511.031 88.4583C512.385 86.8373 513.908 86.0178 515.6 86C516.509 86 517.31 86.4364 518.005 87.3093C518.29 86.7749 518.7 86.5077 519.234 86.5077C519.466 86.5077 519.671 86.5789 519.849 86.7215C520.027 86.864 520.116 87.0421 520.116 87.2559C520.116 87.4875 519.786 88.9126 519.127 91.5312C518.468 94.1499 518.13 95.6284 518.112 95.9669C518.112 96.4123 518.174 96.7062 518.299 96.8487C518.424 96.9912 518.611 97.0714 518.86 97.0892C519.02 97.0714 519.198 96.9912 519.394 96.8487C519.769 96.4924 520.134 95.6374 520.49 94.2835C520.597 93.9272 520.686 93.7402 520.757 93.7224C520.793 93.7045 520.882 93.6956 521.024 93.6956H521.131C521.47 93.6956 521.639 93.7758 521.639 93.9361C521.639 94.043 521.594 94.2835 521.505 94.6576C521.416 95.0317 521.238 95.5127 520.971 96.1005C520.704 96.6884 520.419 97.1337 520.116 97.4366C519.884 97.6681 519.599 97.8552 519.261 97.9977C519.118 98.0333 518.905 98.0511 518.62 98.0511C518.014 98.0511 517.506 97.9175 517.096 97.6503C516.687 97.3831 516.419 97.107 516.295 96.822L516.134 96.4212C516.117 96.4034 516.081 96.4123 516.028 96.4479C515.992 96.4835 515.956 96.5191 515.921 96.5548C514.87 97.5524 513.801 98.0511 512.714 98.0511C511.734 98.0511 510.87 97.6949 510.122 96.9823C509.374 96.2698 509 95.1386 509 93.5887ZM517.497 89.0195C517.497 88.9126 517.453 88.7166 517.364 88.4316C517.275 88.1466 517.07 87.8348 516.749 87.4964C516.428 87.1579 516.019 86.9798 515.52 86.962C514.896 86.962 514.3 87.2381 513.73 87.7903C513.16 88.3425 512.714 89.064 512.394 89.9547C511.877 91.362 511.512 92.8227 511.298 94.3369C511.298 94.3904 511.298 94.4884 511.298 94.6309C511.298 94.7734 511.289 94.8803 511.271 94.9515C511.271 95.7531 511.432 96.3054 511.752 96.6082C512.073 96.9111 512.456 97.0714 512.901 97.0892C513.578 97.0892 514.246 96.7953 514.905 96.2074C515.564 95.6195 515.956 95.1653 516.081 94.8446C516.117 94.7734 516.357 93.8203 516.802 91.9855C517.248 90.1507 517.479 89.162 517.497 89.0195Z" fill="black"/>
<path d="M528.708 95.8224C528.708 95.3186 528.538 94.8841 528.198 94.5189C527.858 94.1536 527.367 93.971 526.725 93.971C526.271 93.971 525.881 94.0529 525.553 94.2166C525.176 94.4559 524.987 94.7834 524.987 95.199C524.974 95.262 524.974 95.3438 524.987 95.4446C524.999 95.5453 525.1 95.6965 525.289 95.898C525.478 96.0995 525.749 96.2569 526.101 96.3703C526.328 96.4332 526.605 96.4899 526.933 96.5403C527.26 96.5907 527.537 96.6473 527.764 96.7103C527.991 96.7733 528.192 96.8552 528.368 96.9559C528.582 97.0567 528.79 97.1826 528.992 97.3337C529.193 97.4849 529.395 97.7431 529.596 98.1083C529.798 98.4735 529.905 98.864 529.917 99.2796C529.917 100.06 529.678 100.703 529.2 101.207C528.721 101.71 527.946 101.969 526.876 101.981H526.725C526.07 101.981 525.465 101.754 524.911 101.301L524.76 101.433L524.59 101.603C524.514 101.679 524.439 101.748 524.363 101.811L524.156 102H524.004H523.929C523.891 102 523.834 101.962 523.759 101.887V100.394V99.2985C523.759 99.034 523.771 98.8766 523.797 98.8262C523.822 98.7758 523.885 98.7443 523.985 98.7317H524.156C524.307 98.7317 524.407 98.7569 524.458 98.8073C524.508 98.8577 524.54 98.9332 524.552 99.034C524.565 99.1348 524.609 99.3048 524.684 99.5441C524.76 99.7834 524.88 100.048 525.043 100.338C525.484 100.98 526.095 101.301 526.876 101.301C528.098 101.301 528.708 100.81 528.708 99.8275C528.708 99.4622 528.595 99.1662 528.368 98.9395C528.116 98.6373 527.594 98.4106 526.8 98.2594C526.007 98.1083 525.484 97.9635 525.232 97.8249C524.779 97.6108 524.42 97.3212 524.156 96.9559C523.891 96.5907 523.759 96.2002 523.759 95.7846C523.759 95.2934 523.866 94.8778 524.08 94.5378C524.294 94.1977 524.565 93.9458 524.892 93.7821C525.22 93.6184 525.535 93.505 525.837 93.4421C526.139 93.3791 526.416 93.3476 526.668 93.3476H526.876C527.38 93.3476 527.82 93.4421 528.198 93.631L528.482 93.7821L528.652 93.6499C528.778 93.5365 528.916 93.4295 529.067 93.3287H529.218H529.294C529.332 93.3287 529.388 93.3665 529.464 93.4421V95.9358L529.351 96.0491H528.822C528.746 95.9735 528.708 95.898 528.708 95.8224Z" fill="black"/>
<path d="M531.089 93.8199C531.756 93.7695 532.273 93.4168 532.638 92.7619C533.003 92.107 533.205 91.3387 533.243 90.4571V90.1738H533.998V93.6498H536.549V94.5189H533.998V97.2393C534.011 98.8136 534.017 99.7015 534.017 99.903C534.017 100.105 534.061 100.306 534.149 100.508C534.326 100.999 534.634 101.244 535.075 101.244C535.629 101.244 535.969 100.797 536.095 99.903C536.108 99.8022 536.114 99.5126 536.114 99.034V98.3728H536.87V99.034V99.2607C536.87 100.23 536.605 100.967 536.076 101.471C535.736 101.811 535.296 101.981 534.754 101.981C534.326 101.981 533.954 101.906 533.639 101.754C533.324 101.603 533.085 101.408 532.921 101.169C532.758 100.929 532.638 100.709 532.563 100.508C532.487 100.306 532.443 100.105 532.43 99.903C532.418 99.8148 532.411 98.8828 532.411 97.107V94.5189H530.919V93.8199H531.089Z" fill="black"/>
<path d="M538.456 97.6738C538.456 96.9811 538.582 96.3514 538.834 95.7846C539.086 95.2179 539.401 94.7582 539.778 94.4055C540.156 94.0529 540.566 93.7884 541.006 93.6121C541.447 93.4358 541.863 93.3413 542.253 93.3287C542.921 93.3287 543.494 93.4421 543.972 93.6688C544.451 93.8955 544.816 94.2103 545.068 94.6133C545.32 95.0164 545.496 95.4194 545.597 95.8224C545.698 96.2254 545.755 96.6725 545.767 97.1637C545.767 97.2519 545.723 97.34 545.635 97.4282H540.307V97.7116C540.307 99.5756 540.937 100.709 542.197 101.112C542.448 101.188 542.726 101.225 543.028 101.225C543.557 101.225 544.01 101.024 544.388 100.621C544.602 100.407 544.772 100.142 544.898 99.8275L545.087 99.3741C545.125 99.3363 545.226 99.3174 545.389 99.3174H545.446C545.66 99.3174 545.767 99.3803 545.767 99.5063C545.767 99.5567 545.748 99.6385 545.71 99.7519C545.471 100.445 545.074 100.992 544.52 101.395C543.966 101.798 543.343 102 542.65 102C541.454 102 540.459 101.565 539.665 100.696C538.872 99.8275 538.469 98.8199 538.456 97.6738ZM544.218 96.597C544.079 94.9849 543.481 94.1285 542.423 94.0277H542.386C542.285 94.0277 542.184 94.034 542.083 94.0466C541.982 94.0592 541.825 94.1096 541.611 94.1977C541.397 94.2859 541.214 94.4181 541.063 94.5944C540.912 94.7708 540.767 95.029 540.629 95.369C540.49 95.7091 540.389 96.1247 540.326 96.6159V96.7481H544.218V96.597Z" fill="black"/>
<path d="M546.844 97.6738C546.844 96.9811 546.97 96.3514 547.222 95.7846C547.473 95.2179 547.788 94.7582 548.166 94.4055C548.544 94.0529 548.953 93.7884 549.394 93.6121C549.835 93.4358 550.251 93.3413 550.641 93.3287C551.308 93.3287 551.882 93.4421 552.36 93.6688C552.839 93.8955 553.204 94.2103 553.456 94.6133C553.708 95.0164 553.884 95.4194 553.985 95.8224C554.086 96.2254 554.142 96.6725 554.155 97.1637C554.155 97.2519 554.111 97.34 554.023 97.4282H548.695V97.7116C548.695 99.5756 549.325 100.709 550.584 101.112C550.836 101.188 551.113 101.225 551.416 101.225C551.944 101.225 552.398 101.024 552.776 100.621C552.99 100.407 553.16 100.142 553.286 99.8275L553.475 99.3741C553.513 99.3363 553.613 99.3174 553.777 99.3174H553.834C554.048 99.3174 554.155 99.3803 554.155 99.5063C554.155 99.5567 554.136 99.6385 554.098 99.7519C553.859 100.445 553.462 100.992 552.908 101.395C552.354 101.798 551.73 102 551.038 102C549.841 102 548.846 101.565 548.053 100.696C547.259 99.8275 546.856 98.8199 546.844 97.6738ZM552.606 96.597C552.467 94.9849 551.869 94.1285 550.811 94.0277H550.773C550.672 94.0277 550.572 94.034 550.471 94.0466C550.37 94.0592 550.213 94.1096 549.999 94.1977C549.785 94.2859 549.602 94.4181 549.451 94.5944C549.3 94.7708 549.155 95.029 549.016 95.369C548.878 95.7091 548.777 96.1247 548.714 96.6159V96.7481H552.606V96.597Z" fill="black"/>
<path d="M555.382 100.923H555.647C556.138 100.923 556.434 100.835 556.535 100.659V100.507C556.535 100.394 556.535 100.249 556.535 100.073C556.535 99.8966 556.541 99.7014 556.554 99.4873C556.566 99.2732 556.566 99.0276 556.554 98.7505C556.541 98.4735 556.541 98.209 556.554 97.9571C556.554 97.5667 556.554 97.1511 556.554 96.7102C556.554 96.2694 556.554 95.8979 556.554 95.5956L556.535 95.1611C556.497 94.9218 556.409 94.7644 556.27 94.6888C556.132 94.6133 555.848 94.5566 555.42 94.5188H555.08V94.0843C555.08 93.7946 555.093 93.6498 555.118 93.6498L555.307 93.6309C555.433 93.6183 555.609 93.6057 555.836 93.5931C556.062 93.5805 556.289 93.5679 556.516 93.5553C556.717 93.5427 556.938 93.5301 557.177 93.5175C557.416 93.5049 557.599 93.4861 557.725 93.4609C557.851 93.4357 557.92 93.4294 557.933 93.442H557.989V94.7455C558.481 93.8891 559.091 93.4609 559.822 93.4609H559.935C560.502 93.4609 560.918 93.5994 561.182 93.8765C561.447 94.1536 561.579 94.4432 561.579 94.7455C561.579 95.01 561.497 95.2367 561.333 95.4256C561.169 95.6145 560.93 95.709 560.615 95.709C560.3 95.709 560.067 95.6082 559.916 95.4067C559.765 95.2052 559.683 94.9911 559.671 94.7644C559.671 94.651 559.683 94.5503 559.709 94.4621C559.734 94.374 559.765 94.2984 559.803 94.2354C559.841 94.1725 559.86 94.141 559.86 94.141C559.834 94.1158 559.69 94.141 559.425 94.2165C559.224 94.3173 559.073 94.4118 558.972 94.4999C558.38 95.0667 558.084 96.1939 558.084 97.8815V98.8828C558.084 99.0465 558.084 99.2165 558.084 99.3929C558.084 99.5692 558.084 99.7329 558.084 99.8841C558.084 100.035 558.09 100.161 558.103 100.262C558.115 100.363 558.115 100.457 558.103 100.545V100.64C558.115 100.665 558.134 100.69 558.159 100.715C558.185 100.74 558.216 100.759 558.254 100.772C558.292 100.785 558.323 100.803 558.348 100.829C558.374 100.854 558.418 100.866 558.481 100.866C558.544 100.866 558.588 100.873 558.613 100.885C558.638 100.898 558.695 100.904 558.783 100.904C558.871 100.904 558.928 100.904 558.953 100.904C558.978 100.904 559.041 100.911 559.142 100.923C559.243 100.936 559.306 100.936 559.331 100.923H559.916V101.792H559.746C559.52 101.754 558.72 101.735 557.347 101.735C556.05 101.735 555.345 101.754 555.231 101.792H555.08V100.923H555.382Z" fill="black"/>
<path d="M562.638 97.6738C562.638 96.9811 562.764 96.3514 563.016 95.7846C563.267 95.2179 563.582 94.7582 563.96 94.4055C564.338 94.0529 564.747 93.7884 565.188 93.6121C565.629 93.4358 566.044 93.3413 566.435 93.3287C567.102 93.3287 567.675 93.4421 568.154 93.6688C568.633 93.8955 568.998 94.2103 569.25 94.6133C569.502 95.0164 569.678 95.4194 569.779 95.8224C569.879 96.2254 569.936 96.6725 569.949 97.1637C569.949 97.2519 569.905 97.34 569.817 97.4282H564.489V97.7116C564.489 99.5756 565.119 100.709 566.378 101.112C566.63 101.188 566.907 101.225 567.209 101.225C567.738 101.225 568.192 101.024 568.57 100.621C568.784 100.407 568.954 100.142 569.08 99.8275L569.269 99.3741C569.306 99.3363 569.407 99.3174 569.571 99.3174H569.628C569.842 99.3174 569.949 99.3803 569.949 99.5063C569.949 99.5567 569.93 99.6385 569.892 99.7519C569.653 100.445 569.256 100.992 568.702 101.395C568.148 101.798 567.524 102 566.832 102C565.635 102 564.64 101.565 563.847 100.696C563.053 99.8275 562.65 98.8199 562.638 97.6738ZM568.4 96.597C568.261 94.9849 567.663 94.1285 566.605 94.0277H566.567C566.466 94.0277 566.366 94.034 566.265 94.0466C566.164 94.0592 566.007 94.1096 565.793 94.1977C565.578 94.2859 565.396 94.4181 565.245 94.5944C565.094 94.7708 564.949 95.029 564.81 95.369C564.672 95.7091 564.571 96.1247 564.508 96.6159V96.7481H568.4V96.597Z" fill="black"/>
<path d="M577.601 92.4408C577.601 92.2393 577.601 91.9874 577.601 91.6851C577.601 91.3829 577.607 91.175 577.619 91.0617C577.619 90.4949 577.557 90.1423 577.431 90.0038C577.305 89.8652 576.983 89.7834 576.467 89.7582H576.127V89.3237C576.127 89.034 576.14 88.8891 576.165 88.8891L576.354 88.8703C576.48 88.8577 576.662 88.8451 576.902 88.8325C577.141 88.8199 577.374 88.8073 577.601 88.7947C577.815 88.7821 578.048 88.7695 578.3 88.7569C578.551 88.7443 578.74 88.7254 578.866 88.7002C578.992 88.675 579.062 88.6687 579.074 88.6813H579.131V94.4244C579.131 98.2783 579.137 100.224 579.15 100.262C579.187 100.514 579.276 100.678 579.414 100.753C579.553 100.829 579.836 100.885 580.264 100.923H580.604V101.792C580.579 101.792 580.101 101.824 579.169 101.887C578.237 101.95 577.739 101.987 577.676 102H577.544V100.961L577.393 101.093C576.662 101.698 575.844 102 574.937 102C573.967 102 573.092 101.616 572.311 100.848C571.53 100.079 571.14 99.0403 571.14 97.7305C571.14 96.471 571.536 95.4446 572.33 94.6511C573.123 93.8577 574.049 93.4546 575.107 93.4421C576.051 93.4421 576.883 93.7506 577.601 94.3677V92.4408ZM577.544 95.3312C576.977 94.5378 576.266 94.141 575.409 94.141C574.792 94.141 574.244 94.3677 573.766 94.8211C573.426 95.1738 573.211 95.5768 573.123 96.0302C573.035 96.4836 572.985 97.0756 572.972 97.806C572.972 98.5113 573.016 99.0844 573.104 99.5252C573.193 99.966 573.413 100.35 573.766 100.678C574.143 101.093 574.635 101.301 575.239 101.301C576.133 101.301 576.902 100.816 577.544 99.8463V95.3312Z" fill="black"/>
</svg>
